<svg id="svg8" xmlns="http://www.w3.org/2000/svg" xmlns:xlink="http://www.w3.org/1999/xlink" viewBox="0 0 800 450"><defs><style>.cls-1{fill:url(#radial-gradient);}.cls-2,.cls-7,.cls-8{fill:#fff;}.cls-10,.cls-11,.cls-12,.cls-13,.cls-3,.cls-4,.cls-5,.cls-6{fill:none;}.cls-10,.cls-11,.cls-12,.cls-3,.cls-4,.cls-5,.cls-6,.cls-7,.cls-8{stroke:#fff;}.cls-3{stroke-width:0.45px;}.cls-4{stroke-width:0.48px;}.cls-5{stroke-width:0.44px;}.cls-6{stroke-width:0.46px;}.cls-7{stroke-width:0.43px;}.cls-8{stroke-width:0.5px;}.cls-9{fill:#f6f8f9;}.cls-10{stroke-width:0.23px;}.cls-11{stroke-width:0.46px;}.cls-12{stroke-width:0.42px;}.cls-13{stroke:#0091ea;stroke-opacity:0;stroke-width:0.26px;}.cls-14{fill:#0091ea;}.cls-15{fill:#55baf8;}.cls-16{fill:#5abdf9;}.cls-17{fill:#5ebffa;}.cls-18{fill:#2fa8f2;}.cls-19{fill:#24a3f0;}</style><radialGradient id="radial-gradient" cx="376.46" cy="372.91" r="105.99" gradientTransform="matrix(6.29, -0.02, -0.01, -3.82, -1964.6, 1800.11)" gradientUnits="userSpaceOnUse"><stop offset="0" stop-color="#7bcdff"/><stop offset="0.64" stop-color="#0091ea"/><stop offset="1" stop-color="#0070b8"/></radialGradient></defs><title>Artboard 1</title><g id="layer5"><rect id="rect6549" class="cls-1" x="-0.18" y="-130.17" width="801.18" height="586.7"/></g><g id="layer3"><path id="path6431" class="cls-2" d="M130.22,359c-12.57.11-23.35,3.72-33.51,6.62v2.11c11.8-4,22.5-6.61,33.51-6.61Z"/><path id="path6433" class="cls-2" d="M130.22,362.83c-12.57-.07-23.35,3.4-33.51,6.15v2.11c11.8-3.86,29.91-6.86,33.51-6.15Z"/><path id="path6435" class="cls-2" d="M127.89,367.19a87.21,87.21,0,0,0-18.66,2h9V370c5.69-.7,10.39-1,12-.58v-2.12Q129,367.21,127.89,367.19Zm-19.62,2.17c-4,.83-7.81,1.78-11.55,2.64v2.11c3.48-1,7.51-1.87,11.55-2.61Z"/><path id="path6437" class="cls-2" d="M125.84,371v2.06a19,19,0,0,1,4.19.24v-2.12c-1.42-.11-2.81-.16-4.19-.18Zm-17.68,1.65c-4,.72-7.88,1.56-11.64,2.32v2.11c3.49-.9,7.58-1.66,11.64-2.29Z"/><path id="path4763" class="cls-3" d="M162.76,374.19v33.07l-33.82.25v-8.28H115.05V450"/><path id="path5467" class="cls-2" d="M388.93,426.64l0,2.13,33.84.21,0-2.13Z"/><path id="path5465" class="cls-2" d="M388.93,423.16l0,2.13,33.84.21,0-2.13Z"/><path id="path4519" class="cls-3" d="M96.66,438.82c-.42-35.6.22-100.33.22-100.33,13.33-6.32,24.08-10.69,33.1-11.9,13.12,1.84,26.63,4.92,42,13.63,0,12-.17,20.21-.06,32.16"/><path id="path4521" class="cls-3" d="M99.13,334.68c9.26-9.15,19.41-10.44,31.67-13.08,16.66,2.44,31.57,8.66,37.48,15.83"/><path id="path4523" class="cls-2" d="M102.09,332.21l-.72,1,2.52,1.91.73-1Z"/><path id="path4525" class="cls-2" d="M104.16,330.63l-.57,1.06,3.9,2.07.57-1.06Z"/><path id="path4527" class="cls-2" d="M108.58,328.12l-.84.87,3.06,3,.84-.87Z"/><path id="path4529" class="cls-2" d="M112.93,326l-.83.89,3.9,3.67.83-.88Z"/><path id="path4531" class="cls-2" d="M118.75,324.55l-1,.67,2.59,3.9,1-.67Z"/><path id="path4533" class="cls-2" d="M124.39,323.43l-1.11.47,1.61,3.75,1.11-.47Z"/><path id="path4535" class="cls-2" d="M129.32,322.19l-1.16.34,1.24,4.23,1.16-.34Z"/><path id="path4537" class="cls-2" d="M135,322a1.2,1.2,0,0,0-.49.46,5.43,5.43,0,0,0-.36.59c-.24.44-.47,1-.7,1.51-.45,1.05-.81,2.06-.81,2.06l1.14.41s.36-1,.79-2c.22-.51.45-1,.66-1.41a4.36,4.36,0,0,1,.28-.46c.07-.1.15-.14,0-.08Z"/><path id="path4539" class="cls-2" d="M140.73,323.66l-3,3.68.94.76,3-3.67Z"/><path id="path4541" class="cls-2" d="M145.58,325.07l-3.21,3.29.87.85,3.21-3.29Z"/><path id="path4543" class="cls-3" d="M150.76,326.65l-2.91,3.44"/><path id="path4545" class="cls-3" d="M153.9,328.1l-2.52,3.14"/><path id="path4547" class="cls-3" d="M157.19,329.55l-2.83,2.68"/><path id="path4549" class="cls-4" d="M161.55,331.37l-3,2.14"/><path id="path4551" class="cls-4" d="M164.75,332.9,162.8,335"/><path id="path4555" class="cls-2" d="M223.48,341.69l-7.25,1.08v67.36h1.21V343.81l4.83-.72v67.1h1.22Z"/><path id="path4557" class="cls-2" d="M222.88,341.73l0,1.21,58.44.91-.54,65.71H282l.55-66.91Z"/><path id="path4559" class="cls-2" d="M224.63,355.23v1.67l6.27.05,0-1.67Z"/><path id="path4561" class="cls-2" d="M224.63,358.59v1.67l6.27.05,0-1.67Z"/><path id="path4563" class="cls-2" d="M224.63,362.38v1.67l6.27.05,0-1.67Z"/><path id="path4565" class="cls-2" d="M224.63,366.05v1.67l6.27.05,0-1.67Z"/><path id="path4567" class="cls-2" d="M224.63,369.84v1.67l6.27.05,0-1.67Z"/><path id="path4569" class="cls-2" d="M224.63,373.74v1.67l6.27.05,0-1.67Z"/><path id="path4571" class="cls-2" d="M224.63,377.73v1.67l6.27.05,0-1.67Z"/><path id="path4573" class="cls-2" d="M224.63,382.06v1.67l6.27.05,0-1.67Z"/><path id="path4575" class="cls-2" d="M224.63,385.63v1.67l6.27.05,0-1.67Z"/><path id="path4577" class="cls-2" d="M224.63,389v1.67l6.27.05,0-1.67Z"/><path id="path4579" class="cls-2" d="M224.63,393.1v1.67l6.27.05,0-1.67Z"/><path id="path4581" class="cls-2" d="M224.63,396.78v1.67l6.27.05,0-1.67Z"/><path id="path4583" class="cls-2" d="M224.63,400.67v1.67l6.27.05,0-1.67Z"/><path id="path4585" class="cls-2" d="M224.63,405.32V407l6.27.05,0-1.66Z"/><path id="path4589" class="cls-2" d="M232.75,355.23l0,1.67L239,357l0-1.67Z"/><path id="path4591" class="cls-2" d="M232.75,358.59l0,1.67,6.27.05,0-1.67Z"/><path id="path4593" class="cls-2" d="M232.75,362.38l0,1.67,6.27.05,0-1.67Z"/><path id="path4595" class="cls-2" d="M232.75,366.05l0,1.67,6.27.05,0-1.67Z"/><path id="path4597" class="cls-2" d="M232.75,369.84l0,1.67,6.27.05,0-1.67Z"/><path id="path4599" class="cls-2" d="M232.75,373.74l0,1.67,6.27.05,0-1.67Z"/><path id="path4601" class="cls-2" d="M232.75,377.73l0,1.67,6.27.05,0-1.67Z"/><path id="path4603" class="cls-2" d="M232.75,382.06l0,1.67,6.27.05,0-1.67Z"/><path id="path4605" class="cls-2" d="M232.75,385.63l0,1.67,6.27.05,0-1.67Z"/><path id="path4607" class="cls-2" d="M232.75,389l0,1.67,6.27.05,0-1.67Z"/><path id="path4609" class="cls-2" d="M232.75,393.1l0,1.67,6.27.05,0-1.67Z"/><path id="path4611" class="cls-2" d="M232.75,396.78l0,1.67,6.27.05,0-1.67Z"/><path id="path4613" class="cls-2" d="M232.75,400.67l0,1.67,6.27.05,0-1.67Z"/><path id="path4615" class="cls-2" d="M232.75,405.32l0,1.67L239,407l0-1.66Z"/><path id="path4617" class="cls-2" d="M241.18,355.23l0,1.67,6.28.05v-1.67Z"/><path id="path4619" class="cls-2" d="M241.18,358.72l0,1.67,6.28.05v-1.67Z"/><path id="path4621" class="cls-2" d="M241.18,362.36l0,1.66,6.28.06v-1.67Z"/><path id="path4623" class="cls-2" d="M241.18,366.11l0,1.67,6.28.05v-1.67Z"/><path id="path4625" class="cls-2" d="M241.18,369.89l0,1.67,6.28.05v-1.67Z"/><path id="path4627" class="cls-2" d="M241.18,373.78l0,1.66,6.28.05v-1.66Z"/><path id="path4629" class="cls-2" d="M241.18,377.76l0,1.67,6.28.05v-1.67Z"/><path id="path4631" class="cls-2" d="M241.18,381.81l0,1.67,6.28.05v-1.66Z"/><path id="path4633" class="cls-2" d="M241.18,385.63l0,1.67,6.28.05v-1.67Z"/><path id="path4635" class="cls-2" d="M241.18,389.2l0,1.67,6.28.05v-1.67Z"/><path id="path4637" class="cls-2" d="M241.18,393l0,1.67,6.28.05v-1.66Z"/><path id="path4639" class="cls-2" d="M241.18,396.93l0,1.67,6.28.05V397Z"/><path id="path4641" class="cls-2" d="M241.18,400.92l0,1.67,6.28.05V401Z"/><path id="path4643" class="cls-2" d="M241.18,405.32l0,1.67,6.28.05v-1.66Z"/><path id="path4645" class="cls-2" d="M249.08,355.23l0,1.67,6.28.05v-1.67Z"/><path id="path4647" class="cls-2" d="M249.08,358.59l0,1.67,6.28.05v-1.67Z"/><path id="path4649" class="cls-2" d="M249.08,362.38l0,1.67,6.28.05v-1.67Z"/><path id="path4651" class="cls-2" d="M249.08,366.05l0,1.67,6.28.05v-1.67Z"/><path id="path4653" class="cls-2" d="M249.08,369.84l0,1.67,6.28.05v-1.67Z"/><path id="path4655" class="cls-2" d="M249.08,373.74l0,1.67,6.28.05v-1.67Z"/><path id="path4657" class="cls-2" d="M249.08,377.73l0,1.67,6.28.05v-1.67Z"/><path id="path4659" class="cls-2" d="M249.08,382.06l0,1.67,6.28.05v-1.67Z"/><path id="path4661" class="cls-2" d="M249.08,385.63l0,1.67,6.28.05v-1.67Z"/><path id="path4663" class="cls-2" d="M249.08,389l0,1.67,6.28.05V389Z"/><path id="path4665" class="cls-2" d="M249.08,393.1l0,1.67,6.28.05v-1.67Z"/><path id="path4667" class="cls-2" d="M249.08,396.78l0,1.67,6.28.05v-1.67Z"/><path id="path4669" class="cls-2" d="M249.08,400.67l0,1.67,6.28.05v-1.67Z"/><path id="path4671" class="cls-2" d="M249.08,405.32l0,1.67,6.28.05v-1.66Z"/><path id="path4673" class="cls-2" d="M257.3,355.34V357l6.27.05,0-1.66Z"/><path id="path4675" class="cls-2" d="M257.3,358.69v1.67l6.27.05,0-1.67Z"/><path id="path4677" class="cls-2" d="M257.3,362.48v1.67l6.27.05,0-1.67Z"/><path id="path4679" class="cls-2" d="M257.3,366.16v1.67l6.27.05,0-1.67Z"/><path id="path4681" class="cls-2" d="M257.3,369.94v1.67l6.27.05,0-1.67Z"/><path id="path4683" class="cls-2" d="M257.3,373.84v1.67l6.27.05,0-1.67Z"/><path id="path4685" class="cls-2" d="M257.3,377.84v1.67l6.27.05,0-1.67Z"/><path id="path4687" class="cls-2" d="M257.3,382.17v1.67l6.27.05,0-1.67Z"/><path id="path4689" class="cls-2" d="M257.3,385.74v1.67l6.27.05,0-1.67Z"/><path id="path4691" class="cls-2" d="M257.3,389.09v1.67l6.27.05,0-1.67Z"/><path id="path4693" class="cls-2" d="M257.3,393.21v1.67l6.27.05,0-1.67Z"/><path id="path4695" class="cls-2" d="M257.3,396.88v1.67l6.27.05,0-1.67Z"/><path id="path4697" class="cls-2" d="M257.3,400.77v1.67l6.27.05,0-1.66Z"/><path id="path4699" class="cls-2" d="M257.3,405.43v1.66l6.27.06,0-1.67Z"/><path id="path4701" class="cls-2" d="M265.85,355.34l0,1.67,6.28.05V355.4Z"/><path id="path4703" class="cls-2" d="M265.85,358.83l0,1.67,6.28.05v-1.66Z"/><path id="path4705" class="cls-2" d="M265.85,362.47l0,1.67,6.28.05v-1.67Z"/><path id="path4707" class="cls-2" d="M265.85,366.21l0,1.67,6.28.05v-1.67Z"/><path id="path4709" class="cls-2" d="M265.85,370l0,1.67,6.28.05v-1.67Z"/><path id="path4711" class="cls-2" d="M265.85,373.89l0,1.67,6.28.05v-1.67Z"/><path id="path4713" class="cls-2" d="M265.85,377.87l0,1.67,6.28.05v-1.67Z"/><path id="path4715" class="cls-2" d="M265.85,381.93l0,1.66,6.28.06V382Z"/><path id="path4717" class="cls-2" d="M265.85,385.74l0,1.67,6.28.05v-1.67Z"/><path id="path4719" class="cls-2" d="M265.85,389.31l0,1.67,6.28.05v-1.67Z"/><path id="path4721" class="cls-2" d="M265.85,393.12l0,1.66,6.28.05v-1.66Z"/><path id="path4723" class="cls-2" d="M265.85,397l0,1.67,6.28.05v-1.67Z"/><path id="path4725" class="cls-2" d="M265.85,401l0,1.67,6.28.05v-1.67Z"/><path id="path4727" class="cls-2" d="M265.85,405.43l0,1.66,6.28.06v-1.67Z"/><path id="path4729" class="cls-2" d="M273.86,355.34l0,1.67,6.28.05V355.4Z"/><path id="path4731" class="cls-2" d="M273.86,358.69l0,1.67,6.28.05v-1.67Z"/><path id="path4733" class="cls-2" d="M273.86,362.48l0,1.67,6.28.05v-1.67Z"/><path id="path4735" class="cls-2" d="M273.86,366.16l0,1.67,6.28.05v-1.67Z"/><path id="path4737" class="cls-2" d="M273.86,369.94l0,1.67,6.28.05V370Z"/><path id="path4739" class="cls-2" d="M273.86,373.84l0,1.67,6.28.05V373.9Z"/><path id="path4741" class="cls-2" d="M273.86,377.84l0,1.67,6.28.05V377.9Z"/><path id="path4743" class="cls-2" d="M273.86,382.17l0,1.67,6.28.05v-1.67Z"/><path id="path4745" class="cls-2" d="M273.86,385.74l0,1.67,6.28.05v-1.67Z"/><path id="path4747" class="cls-2" d="M273.86,389.09l0,1.67,6.28.05v-1.67Z"/><path id="path4749" class="cls-2" d="M273.86,393.21l0,1.67,6.28.05v-1.67Z"/><path id="path4751" class="cls-2" d="M273.86,396.88l0,1.67,6.28.05v-1.67Z"/><path id="path4753" class="cls-2" d="M273.86,400.77l0,1.67,6.28.05v-1.66Z"/><path id="path4755" class="cls-2" d="M273.86,405.43l0,1.66,6.28.06v-1.67Z"/><path id="path4757" class="cls-2" d="M303.12,364.41l-7.57,1a.7.7,0,0,0-.61.69l.11,79.57a.7.7,0,0,0,.58.69l7.47,1.24a.7.7,0,0,0,.81-.69V365.11a.7.7,0,0,0-.7-.7h-.1Zm-.61,1.49v80.2l-6.06-1-.11-78.37Z"/><path id="path4759" class="cls-2" d="M303.23,364.28l0,1.22,53,1v24h1.21V365.3Z"/><path id="path4761" class="cls-3" d="M210.57,407l-.22-34.18-47.58-.11v1.19l-37.3-.07,0-4-16.67-.2v78.5l6.48,1.82"/><path id="path4799" class="cls-5" d="M162.41,407.26l50.61,0"/><path id="path4825" class="cls-2" d="M212.25,407.09l0,42.68h1.22l-.05-42.68Z"/><path id="path4847" class="cls-2" d="M253,407.05l-20.25.09v2.54h-13v40.15H221V410.9h13v-2.55l17.83-.08v2.63h38.24v39.25h1.21V409.68H253Z"/><path id="path4849" class="cls-2" d="M254,409.78l-.06-1.8h2.47l0,1.77Z"/><path id="path4851" class="cls-2" d="M259.18,409.78l0-1.8h1.6l0,1.77Z"/><path id="path4853" class="cls-2" d="M261.62,409.78l0-1.8h1.6l0,1.77Z"/><path id="path4855" class="cls-2" d="M274.34,409.78l-.12-.94h5.37l-.06.92Z"/><path id="path4857" class="cls-2" d="M312.12,359.85l-5.13.33-.09,4.73,1.21,0,.07-3.61,2.74-.17v3.34h1.21Z"/><path id="path4859" class="cls-2" d="M311.53,359.89l0,1.21,31.81.9v3.43h1.22v-4.61Z"/><path id="path4861" class="cls-2" d="M305.13,368.83l0,1.18,8.13.16,0-1.18Z"/><path id="path4863" class="cls-2" d="M305.18,372.52v1.18l7.87.08V372.6Z"/><path id="path4865" class="cls-2" d="M305.18,376.2v1.22l7.82.08,0-1.22Z"/><path id="path4867" class="cls-2" d="M305.23,379.84v1.22l7.66.05v-1.22Z"/><path id="path4873" class="cls-2" d="M305.07,383.8V385l8,.05v-1.18Z"/><path id="path4875" class="cls-2" d="M305.18,387.49l0,1.18,7.8.08v-1.18Z"/><path id="path4877" class="cls-2" d="M305.18,391.11v1.22l7.71.05v-1.22Z"/><path id="path4879" class="cls-2" d="M305.24,394.75l0,1.22,7.76.11,0-1.22Z"/><path id="path4881" class="cls-2" d="M313.19,398.68l-8.12,0v1.19l8.13,0Z"/><path id="path4883" class="cls-2" d="M305.18,402.41v1.18l7.92.08v-1.18Z"/><path id="path4885" class="cls-2" d="M305.18,406v1.22l7.87,0v-1.22Z"/><path id="path4887" class="cls-2" d="M305.23,409.67v1.22h7.66v-1.22Z"/><path id="path4889" class="cls-2" d="M305.07,413.47v1.19h7.86v-1.19Z"/><path id="path4891" class="cls-2" d="M305.17,417.18v1.18l7.92,0V417.2Z"/><path id="path4927" class="cls-2" d="M314.7,368.87l0,1.22,6.44.11,0-1.21Z"/><path id="path4929" class="cls-2" d="M314.59,372.58v1.22l6.66.07v-1.21Z"/><path id="path4931" class="cls-2" d="M314.66,376.33v1.22h6.7v-1.22Z"/><path id="path4933" class="cls-2" d="M314.47,379.85v1.21l6.7.08,0-1.22Z"/><path id="path4935" class="cls-2" d="M314.66,383.64v1.22l6.4,0v-1.21Z"/><path id="path4937" class="cls-2" d="M320.86,387.65l-6.14.08,0,1.21,6.14-.08Z"/><path id="path4939" class="cls-2" d="M314.62,391.18v1.21h6v-1.21Z"/><path id="path4941" class="cls-2" d="M320.51,394.91l-5.57.08,0,1.21,5.57-.08Z"/><path id="path4943" class="cls-2" d="M315.19,398.84h-.38l.11,1.21h2.91l2.74,0,0-1.21-2.75,0h-2.64Z"/><path id="path4945" class="cls-2" d="M320.46,402.65l-5.2,0v1.21l5.19,0Z"/><path id="path4947" class="cls-2" d="M315.11,406.32v1.21l5.36,0v-1.21Z"/><path id="path4949" class="cls-2" d="M315.25,410v1.21l5.3,0V410Z"/><path id="path4951" class="cls-2" d="M315.37,413.71v1.21h5.06v-1.21Z"/><path id="path4953" class="cls-2" d="M320.46,417.45l-5.22,0v1.22l5.21,0Z"/><path id="path4955" class="cls-2" d="M322.93,368.92v1.31l5.87,0v-1.31Z"/><path id="path4957" class="cls-2" d="M323,372.48v1.31l5.87,0v-1.31Z"/><path id="path4959" class="cls-2" d="M323,376.15v1.32l5.87,0v-1.32Z"/><path id="path4961" class="cls-2" d="M323,379.79v1.31l5.87,0v-1.31Z"/><path id="path4963" class="cls-2" d="M323,383.5v1.31l5.87,0v-1.31Z"/><path id="path4965" class="cls-2" d="M323,387.51v1.32l5.87,0v-1.32Z"/><path id="path4967" class="cls-2" d="M323,391.22v1.32l5.87,0v-1.32Z"/><path id="path4969" class="cls-2" d="M323,395v1.32l5.87,0V395Z"/><path id="path4971" class="cls-2" d="M328.89,398.64l-5.8.05V400l5.81-.05Z"/><path id="path4973" class="cls-2" d="M328.86,402.7l-5.78.05v1.31l5.79-.05Z"/><path id="path4975" class="cls-2" d="M328.75,406.32l-5.72.05v1.31l5.73-.05Z"/><path id="path4977" class="cls-2" d="M328.84,410l-5.81,0v1.32l5.8,0Z"/><path id="path4979" class="cls-2" d="M323,413.82v1.32h6v-1.32Z"/><path id="path4981" class="cls-2" d="M331.15,369.1l0,1.21,6.24.08,0-1.21Z"/><path id="path4983" class="cls-2" d="M339.73,369.08l0,1.21,6.39.13,0-1.21Z"/><path id="path4985" class="cls-2" d="M348.24,369.13l0,1.21,6.16.16,0-1.21Z"/><path id="path4987" class="cls-2" d="M331.14,372.72v1.22h6.11v-1.22Z"/><path id="path4989" class="cls-2" d="M339.83,372.8V374l6.15.05v-1.21Z"/><path id="path4991" class="cls-2" d="M348.07,372.9v1.21l6.37.05V373Z"/><path id="path4993" class="cls-2" d="M337.41,376.3l-6.24,0v1.22l6.23,0Z"/><path id="path4995" class="cls-2" d="M339.8,376.36l0,1.22,6,.11,0-1.22Z"/><path id="path4997" class="cls-2" d="M348.17,376.49v1.22l6.21,0v-1.22Z"/><path id="path4999" class="cls-2" d="M331.15,379.89v1.22l6.21.05v-1.22Z"/><path id="path5001" class="cls-2" d="M339.77,380l0,1.22,6,.08,0-1.22Z"/><path id="path5003" class="cls-2" d="M348.29,380.1v1.22l6.15.05v-1.22Z"/><path id="path5005" class="cls-2" d="M331.15,384l0,1.22,6.24.08,0-1.22Z"/><path id="path5007" class="cls-2" d="M339.69,383.64v1.22l6,.05v-1.22Z"/><path id="path5009" class="cls-2" d="M348.2,383.64v1.22l3.12,0,3,0v-1.22l-3,0-3.14,0Z"/><path id="path5011" class="cls-2" d="M331.26,387.65v1.22l6.13.05v-1.22Z"/><path id="path5013" class="cls-2" d="M339.77,387.17l0,1.22,5.71.08,0-1.22Z"/><path id="path5015" class="cls-2" d="M348.33,387v1.21h6V387Z"/><path id="path5017" class="cls-2" d="M331.18,391.24v1.22l6.23.05v-1.22Z"/><path id="path5019" class="cls-2" d="M331.28,395.08v1.21h6.35v-1.21Z"/><path id="path5021" class="cls-2" d="M337.48,398.72l-3,0h-3.18l-.11,1.21h3.3l3,0Z"/><path id="path5023" class="cls-2" d="M337.49,402.68l-6.3,0v1.21l6.29,0Z"/><path id="path5025" class="cls-2" d="M331,406.51v1.21l6.31.05v-1.21Z"/><path id="path5027" class="cls-2" d="M331.25,410.25v1.21h5.95v-1.21Z"/><path id="path5029" class="cls-2" d="M337.08,413.89l-5.78.05v1.21l5.79-.05Z"/><path id="path5031" class="cls-2" d="M337.08,417.53l-5.83.05v1.21l5.84-.05Z"/><path id="path5033" class="cls-2" d="M329,417.48l-6.16.11,0,1.21,6.15-.11Z"/><path id="path5035" class="cls-2" d="M343.43,417.69l-4.15.09,0,1.21,4.14-.08Z"/><path id="path5037" class="cls-2" d="M339.71,414v1.21h3.57V414Z"/><path id="path5039" class="cls-2" d="M339.55,410.25v1.21h3.8v-1.21Z"/><path id="path5041" class="cls-2" d="M339.67,406.67l0,1.21,3.53.11,0-1.21Z"/><path id="path5043" class="cls-2" d="M339.71,403v1.21h3.37V403Z"/><path id="path5045" class="cls-2" d="M339.76,399.43v1.22h3.48v-1.22Z"/><path id="path5047" class="cls-2" d="M339.72,395.58l0,1.22,3.43.05,0-1.22Z"/><path id="path5049" class="cls-2" d="M339.88,391.67l0,1.22,3.21.05,0-1.22Z"/><path id="path5051" class="cls-2" d="M347.66,391.68l-5,.25-.19,55.5L352,450.1l.32-1.17-8.66-2.41.19-53.43,3.81-.2,100.8.47-.12,3.82,3.76,2.08,0,50.88h1.21l0-51.6-3.73-2.07.13-4.32Z"/><path id="path5053" class="cls-2" d="M347.09,392.11v56.63h1.21V392.11Z"/><path id="path5055" class="cls-2" d="M348.06,396.31l-.38,1.14,4.73,1.61,36.75.39h.07a98,98,0,0,1,14-1,121.16,121.16,0,0,1,19.6,1.06h0l30.18-.05v-1.21l-30.12,0a122.14,122.14,0,0,0-19.72-1.06,94.8,94.8,0,0,0-14.13,1h0l-36.47-.39Z"/><path id="path5057" class="cls-2" d="M388.37,398.65v51.41h1.31V398.65Z"/><path id="path5059" class="cls-2" d="M422.3,398.42v51.84h1.32V398.42Z"/><path id="path5063" class="cls-2" d="M389.56,401.22v2.13c11.29-.37,22.35-.29,33.31,0v-2.13c-13.43-.31-25-.69-33.31,0Z"/><path id="path5065" class="cls-2" d="M389.25,404.79l0,2.13c11.4-.22,22.67-.12,33.84.21l0-2.13C411.91,404.84,400.65,404.74,389.25,404.79Z"/><path id="path5067" class="cls-2" d="M389,408.47l0,2.13,33.84.21,0-2.13Q406,408.41,389,408.47Z"/><path id="path5069" class="cls-2" d="M388.93,412.25l0,2.13,33.84.21,0-2.13Z"/><path id="path5071" class="cls-2" d="M389.26,415.79l0,2.13,33.84.21V416Z"/><path id="path5073" class="cls-2" d="M388.93,419.67l0,2.13,33.84.21,0-2.13Z"/><path id="path5075" class="cls-2" d="M388.94,430l-.05,2.13c11.37.32,22.71.5,33.9.21l-.05-2.13c-11.13.28-22.44.1-33.79-.21Z"/><path id="path5077" class="cls-2" d="M389,433.45l-.08,2.13c11.38.43,22.71.6,33.91.21l-.07-2.13c-11.13.38-22.41.21-33.76-.21Z"/><path id="path5079" class="cls-2" d="M389,437l-.1,2.13c11.39.53,22.72.7,33.93.21l-.09-2.13c-11.13.48-22.4.31-33.74-.21Z"/><path id="path5123" class="cls-2" d="M320.83,353.31v7H322v-5.82l36.35.45v-1.22Z"/><path id="path5125" class="cls-2" d="M359.28,351.36h-1.21l0,3.43h1.22Z"/><path id="path5127" class="cls-2" d="M371.87,349.38l-15.72,1.06.08,1.21,15.63-1.06L392,352.17l.09-1.21Z"/><path id="path5129" class="cls-2" d="M369.43,353.24l-11.07.53.06,1.22,11-.54,32.39.3-.45,36.12,1.22,0,.47-37.34Z"/><path id="path5131" class="cls-2" d="M368.53,354.07l0,3.56h1.21l0-3.56Z"/><path id="path5133" class="cls-2" d="M365.51,357.25v1.21l36.42.3v-1.21Z"/><path id="path5135" class="cls-2" d="M364.89,357.85v32.41h1.22V357.85Z"/><path id="path5137" class="cls-2" d="M356.57,354.52v11h1.22v-11Z"/><path id="path5139" class="cls-2" d="M365.61,360.65l-7.87.16,0,1.67,7.87-.16Z"/><path id="path5141" class="cls-2" d="M365.66,364.51l-8.51.16,0,1.67,8.51-.16Z"/><path id="path5143" class="cls-2" d="M365.66,368.84l-8.35.16,0,1.67,8.35-.16Z"/><path id="path5145" class="cls-2" d="M365.67,372.8l-8.41.05,0,1.69,8.4-.05Z"/><path id="path5147" class="cls-2" d="M357.27,376.77v1.67h8.41v-1.67Z"/><path id="path5149" class="cls-2" d="M357.27,380.68v1.67h8.46v-1.67Z"/><path id="path5151" class="cls-2" d="M357,384.85l0,1.67,8.78.11,0-1.67Z"/><path id="path5153" class="cls-2" d="M365.46,357.25l-8.17.58.09,1.21,8.17-.58Z"/><path id="path5155" class="cls-2" d="M371.07,350.24v3.11h1.21v-3.11Z"/><path id="path5157" class="cls-2" d="M390.13,351.53v2h1.21v-2Z"/><path id="path5159" class="cls-2" d="M452.47,363.58l-13,.72v6.93l-16.81.05V391h1.22v-18.5l16.81-.05v-7l10.57-.57v31.37h1.22Z"/><path id="path5161" class="cls-2" d="M452.34,363.61l0,1.22,22.84.42,0-1.23Z"/><path id="path5165" class="cls-2" d="M505.71,360.37l-31.29.22-.16,6.75-8.53.05v82H467V368.6l7.64,0,28.31-.11v81.18h1.22V368.84l1.6.43Zm-1.21,1.22v6.11l-1-.27v-.2l-28,.11.13-5.54Z"/><path id="path5169" class="cls-2" d="M505.31,360.41l-.4,1.14,4.62,1.67v84.38l-6.64,1.77H465.73v1.22h37.33l7.68-2.06V362.36Z"/><path id="path5171" class="cls-2" d="M527.62,316.28l-.72,13.26-.4.28v3l-1.53.38v7l-7.07.27,0,4.7-3.29.32v6.93l-1.29.15v9.95h-1.54V450H513V363.76h1.54V353.68l1.3-.15v-6.91l3.3-.32,0-4.63,7.06-.27v-7.22l1.54-.38v-3.34l.36-.25.25-4.61.08,4.63.53.26v3l1.56.75v10h1.21V333.48l-1.56-.75v-3l-.54-.28-.21-13.18Z"/><path id="path5173" class="cls-2" d="M521.79,362.68l-9.25.2,0,1.21,9.22-.19,7.09.11,0-1.21Z"/><path id="path5175" class="cls-2" d="M551,361.78l-12,.06-10.66.46v87.84h1.21V363.46L539,363l11.95-.06,5.16.55v85.94h1.21v-87Z"/><path id="path5177" class="cls-2" d="M538.24,362.79v87h1.21v-87Z"/><path id="path5179" class="cls-2" d="M550.34,362.93V449.7h1.21V362.93Z"/><path id="path5181" class="cls-2" d="M538.75,350.81l-9.11.29v11.58h1.21V352.27l7.92-.25,11.56.08,4.76.3.08-1.22-4.79-.3Z"/><path id="path5183" class="cls-2" d="M538.43,351.49v11.19h1.22V351.49Z"/><path id="path5185" class="cls-2" d="M549.74,351.49v11H551v-11Z"/><path id="path5187" class="cls-2" d="M538.9,343.85l-8.43.33,0,6.64h1.22l0-5.46,7.24-.28,9.64.12,4.43.55.14-1.21-4.49-.55Z"/><path id="path5189" class="cls-2" d="M539.67,315.21l-.92,12.69-.67.22v3.28l-1.29.32-.05,7.11-5.59.65-.1,5,1.21,0,.08-3.9,5.61-.66.05-7.24,1.29-.32V329l.61-.21.71-9.72.65,9.45.81.54.27,3.36,1.31.47v7l.55,0c4.08.35,3.93.38,6.48.71v3.67l2.27.51c0,.59-.12,4.23-.09,6.35v.49l.48.1a3.2,3.2,0,0,1,1.06.4l.12.06a7.82,7.82,0,0,1,0,.79h0l0,9.6h1.21l0-9.58v0a9.83,9.83,0,0,0,0-1.35l-1.19-.11a.62.62,0,0,1,.35-.38.4.4,0,0,1,.33,0s-.06,0-.21-.13a7.77,7.77,0,0,0-.93-.35c0-2.33.08-6.41.08-6.41l0-.49-2.29-.51v-3.78l-.53-.07c-3-.39-3.11-.4-6.5-.7V332l-1.38-.49-.26-3.17-.8-.54-.88-12.64Z"/><path id="path5193" class="cls-2" d="M548,344.76V351h1.22v-6.29Z"/><path id="path5195" class="cls-2" d="M522.15,352.29l-6.92.1,0,1.21,6.88-.09,7.64.34.05-1.22Z"/><path id="path5199" class="cls-2" d="M518.54,345.14v1.21l8.2,0,4.09.33.1-1.21-4.13-.34Z"/><path id="path5201" class="cls-2" d="M525.58,340.21l0,1.21,5.08.06,0-1.21Z"/><path id="path5203" class="cls-2" d="M537.35,338.77V340l6.91,0v-1.21Z"/><path id="path5207" class="cls-6" d="M13.29,449.54V314"/><path id="path5209" class="cls-6" d="M13.08,330.44H8.5l-2.94,1.36V448l2.88,1.78"/><path id="path5211" class="cls-6" d="M8.5,330.44V449.85"/><path id="path5213" class="cls-6" d="M10,330.22c0-.11,0-13.92,0-13.92l3.28-2.3,28.93.37V450.43"/><path id="path5215" class="cls-6" d="M42.36,330.59l3.93.11V449.91"/><path id="path5217" class="cls-6" d="M18.36,320.42v9.85l19.3.21V321l-19.24-.11"/><path id="path5219" class="cls-6" d="M18.59,324.19h2.08l13.52-3.44"/><path id="path5223" class="cls-3" d="M51.3,448.45v-69c9.53-.11,17-.32,24.52.64V448.6L73.13,450l-17.94.15Z"/><path id="path5225" class="cls-3" d="M78.72,449.88V374.07l5.14.32v6.32l8.46.11-.15,69.26"/><path id="path5227" class="cls-3" d="M78.72,374H60.83v5.35"/><path id="path5253" class="cls-2" d="M74.18,382a165.84,165.84,0,0,0-22.86-.6l.19,5c7.8-.35,15.13,0,22.71.22"/><path id="path5673" class="cls-2" d="M569.87,370.34l-13.26.46,0,1.21,12-.41v78.26h1.22Z"/><path id="path5675" class="cls-2" d="M601.25,382.68l-25.61.77v66.2h1.18V384.59l24.44-.73,38.86.53v65.24h1.18V383.23Z"/><path id="path5679" class="cls-2" d="M598,383.3v67.09h1.21V383.3Z"/><path id="path5681" class="cls-2" d="M569.27,370.36l0,1.21,62.5,1.12v10.46H633V371.5Z"/><path id="path5683" class="cls-2" d="M658.28,382.84l-13.62.16v65.82h1.21V384.2l12.43-.14Z"/><path id="path5685" class="cls-2" d="M657.83,375v74H659v-72.8h3.18l44.68,1.49v2.45h1.22V376.5L662.23,375Z"/><path id="path5687" class="cls-2" d="M684,379.71l-4.84.8v68.84l4.84,1V379.71Zm-1.21,1.42V448.9l-2.42-.52V381.54Z"/><path id="path5691" class="cls-2" d="M683.44,379.82l0,1.21,27.13.74v68.38h1.21V380.59Z"/><path id="path5693" class="cls-2" d="M711.68,383.68l0,1.21,3.79.06v63.18h1.22V383.76Z"/><path id="path5695" class="cls-2" d="M740.14,369.44l-8.43.11-6.85,1.23V377h-7.17v71.47h1.21V378.21h7.17V371.8l5.76-1,8.29-.11,30.69,1.4-.15,78h1.22L772,370.9Z"/><path id="path5697" class="cls-2" d="M750,353.47l-.55,0v5.67l-2.88-.15v12h1.21V360.31l2.88.15v-5.78c14.5-1.19,29-.18,43.62.44v91.53h1.21V353.94l-.58,0c-14.93-.63-29.89-1.74-44.9-.45Z"/><path id="path4838" class="cls-7" d="M84.85,383.36v2.87l5-.08v-2.8Z"/><path id="path4840" class="cls-2" d="M240.71,349.75v-4.16h3.14v4.11Z"/><path id="path4840-1" class="cls-2" d="M244.82,349.73v-4.16l3.14,0v4.11Z"/><path id="path4840-1-3" class="cls-2" d="M248.94,349.77v-4.16l3.14,0v4.11Z"/><path id="path4840-1-3-8" class="cls-2" d="M253,349.83v-4.16l3.14,0v4.11Z"/><path id="path4840-1-3-8-3" class="cls-2" d="M257.16,349.81v-4.16l3.14,0v4.11Z"/><path id="path4840-1-3-8-3-9" class="cls-2" d="M261.27,349.85v-4.16l3.14,0v4.11Z"/><path id="path5050" class="cls-2" d="M521.71,354.17l-6.29.14,0,1.22,6.25-.14,7.09.28.05-1.21Z"/><path id="path5052" class="cls-2" d="M521.71,356.4l-6.29.14,0,1.21,6.25-.14,7.09.29.05-1.22Z"/><path id="path5054" class="cls-2" d="M521.71,358.63l-6.29.14,0,1.21,6.25-.13,7.09.28.05-1.21Z"/><path id="path5056" class="cls-2" d="M521.7,360.87l-6.28.14,0,1.21,6.25-.14,7,.21,0-1.22Z"/><path id="path5060" class="cls-2" d="M537.53,352.88l-5.83.18v1.21l5.83-.18Z"/><path id="path5064" class="cls-2" d="M537.53,355.14l-5.83.18v1.21l5.83-.18Z"/><path id="path5066" class="cls-2" d="M537.53,357.4l-5.83.18v1.21l5.83-.18Z"/><path id="path5068" class="cls-2" d="M537.53,359.66l-5.83.18V361l5.83-.18Z"/><path id="path5072" class="cls-2" d="M540.59,352.73v1.21l8.15,0v-1.21Z"/><path id="path5074" class="cls-2" d="M540.59,355v1.21l8.15,0v-1.21Z"/><path id="path5076" class="cls-2" d="M540.59,357.36v1.21l8.15,0v-1.21Z"/><path id="path5078" class="cls-2" d="M540.59,359.58v1.21l8.15,0V359.6Z"/><path id="path5080" class="cls-2" d="M551.52,352.79V354l2.44.14v-1.21Z"/><path id="path5084" class="cls-2" d="M551.52,355.08v1.21l2.44.14v-1.21Z"/><path id="path5086" class="cls-2" d="M551.52,357.56v1.21l2.44.14V357.7Z"/><path id="path5088" class="cls-2" d="M551.52,359.62v1.21L554,361v-1.21Z"/><path id="path5090" class="cls-2" d="M537.53,364.24l-7.1.35v1.21l7.1-.35Z"/><path id="path5098" class="cls-2" d="M537.53,366.52l-7.1.35v1.21l7.1-.35Z"/><path id="path5100" class="cls-2" d="M537.53,368.79l-7.1.35v1.21l7.1-.35Z"/><path id="path5102" class="cls-2" d="M537.53,371.07l-7.1.35v1.21l7.1-.35Z"/><path id="path5104" class="cls-2" d="M537.53,373.34l-7.1.35v1.21l7.1-.35Z"/><path id="path5106" class="cls-2" d="M537.53,375.62l-7.1.35v1.21l7.1-.35Z"/><path id="path5108" class="cls-2" d="M537.53,377.89l-7.1.35v1.21l7.1-.35Z"/><path id="path5110" class="cls-2" d="M537.53,380.16l-7.1.35v1.21l7.1-.35Z"/><path id="path5112" class="cls-2" d="M537.53,382.44l-7.1.35V384l7.1-.35Z"/><path id="path5114" class="cls-2" d="M537.53,384.71l-7.1.35v1.21l7.1-.35Z"/><path id="path5116" class="cls-2" d="M537.53,387l-7.1.35v1.21l7.1-.35Z"/><path id="path5118" class="cls-2" d="M537.53,389.26l-7.1.35v1.21l7.1-.35Z"/><path id="path5120" class="cls-2" d="M537.53,391.54l-7.1.35v1.21l7.1-.35Z"/><path id="path5122" class="cls-2" d="M537.53,393.81l-7.1.35v1.21l7.1-.35Z"/><path id="path5124" class="cls-2" d="M537.53,396.08l-7.1.35v1.21l7.1-.35Z"/><path id="path5126" class="cls-2" d="M537.53,398.36l-7.1.35v1.21l7.1-.35Z"/><path id="path5128" class="cls-2" d="M537.53,400.63l-7.1.35v1.21l7.1-.35Z"/><path id="path5148" class="cls-2" d="M549.14,364l-8.42.06v1.22l8.42-.06Z"/><path id="path5152" class="cls-2" d="M549.14,366.27l-8.42.06v1.22l8.42-.06Z"/><path id="path5154" class="cls-2" d="M549.14,368.57l-8.42.06v1.22l8.42-.06Z"/><path id="path5156" class="cls-2" d="M549.14,370.88l-8.42.06v1.22l8.42-.06Z"/><path id="path5158" class="cls-2" d="M549.14,373.18l-8.42.06v1.22l8.42-.06Z"/><path id="path5160" class="cls-2" d="M549.14,375.48l-8.42.06v1.22l8.42-.06Z"/><path id="path5162" class="cls-2" d="M549.14,377.78l-8.42.06v1.22l8.42-.06Z"/><path id="path5164" class="cls-2" d="M549.14,380.08l-8.42.06v1.22l8.42-.06Z"/><path id="path5166" class="cls-2" d="M549.14,382.38l-8.42.06v1.22l8.42-.06Z"/><path id="path5168" class="cls-2" d="M549.14,384.68l-8.42.06V386l8.42-.06Z"/><path id="path5170" class="cls-2" d="M549.14,387l-8.42.06v1.22l8.42-.06Z"/><path id="path5172" class="cls-2" d="M549.14,389.28l-8.42.06v1.22l8.42-.06Z"/><path id="path5174" class="cls-2" d="M549.14,391.58l-8.42.06v1.22l8.42-.06Z"/><path id="path5176" class="cls-2" d="M549.14,393.88l-8.42.06v1.22l8.42-.06Z"/><path id="path5178" class="cls-2" d="M549.14,396.18l-8.42.06v1.22l8.42-.06Z"/><path id="path5180" class="cls-2" d="M549.14,398.49l-8.42.06v1.22l8.42-.06Z"/><path id="path5182" class="cls-2" d="M549.14,400.58l-8.42.06v1.22l8.42-.06Z"/><path id="path5184" class="cls-2" d="M552.28,364.11v1.21l3,.32v-1.2Z"/><path id="path5188" class="cls-2" d="M552.28,366.33v1.21l3,.32v-1.2Z"/><path id="path5190" class="cls-2" d="M552.28,368.64v1.21l3,.32V369Z"/><path id="path5192" class="cls-2" d="M552.28,370.84V372l3,.32v-1.2Z"/><path id="path5194" class="cls-2" d="M552.28,373.18v1.21l3,.32v-1.2Z"/><path id="path5196" class="cls-2" d="M552.28,375.39v1.21l3,.32v-1.2Z"/><path id="path5198" class="cls-2" d="M552.28,377.71v1.21l3,.32V378Z"/><path id="path5200" class="cls-2" d="M552.28,379.9v1.21l3,.32v-1.2Z"/><path id="path5202" class="cls-2" d="M552.28,382.44v1.21l3,.32v-1.2Z"/><path id="path5204" class="cls-2" d="M552.28,384.66v1.21l3,.32V385Z"/><path id="path5206" class="cls-2" d="M552.28,387v1.21l3,.32v-1.2Z"/><path id="path5208" class="cls-2" d="M552.28,389.17v1.21l3,.32v-1.2Z"/><path id="path5210" class="cls-2" d="M552.28,391.61v1.21l3,.32v-1.2Z"/><path id="path5212" class="cls-2" d="M552.28,393.83V395l3,.32v-1.2Z"/><path id="path5214" class="cls-2" d="M552.28,396.14v1.21l3,.32v-1.2Z"/><path id="path5216" class="cls-2" d="M552.28,398.34v1.21l3,.32v-1.2Z"/><path id="path5218" class="cls-2" d="M552.28,400.73v1.21l3,.32v-1.2Z"/><path id="path5220" class="cls-2" d="M528.46,365.09l-14.44.13v1.23l14.44-.13Z"/><path id="path5222" class="cls-2" d="M528.46,367.34l-14.44.13v1.23l14.44-.14Z"/><path id="path5224" class="cls-2" d="M528.46,369.52l-14.44.14v1.23l14.44-.14Z"/><path id="path5226" class="cls-2" d="M528.46,371.78l-14.44.14v1.23l14.44-.14Z"/><path id="path5228" class="cls-2" d="M528.46,374,514,374.1v1.23l14.44-.14Z"/><path id="path5230" class="cls-2" d="M528.46,376.21l-14.44.14v1.23l14.44-.14Z"/><path id="path5232" class="cls-2" d="M528.46,378.4l-14.44.13v1.23l14.44-.13Z"/><path id="path5234" class="cls-2" d="M528.46,380.66l-14.44.13V382l14.44-.13Z"/><path id="path5236" class="cls-2" d="M528.46,383l-14.44.13v1.23l14.44-.13Z"/><path id="path5238" class="cls-2" d="M528.46,385.24l-14.44.13v1.23l14.44-.13Z"/><path id="path5240" class="cls-2" d="M528.46,387.42l-14.44.14v1.23l14.44-.14Z"/><path id="path5242" class="cls-2" d="M528.46,389.67l-14.44.14V391l14.44-.14Z"/><path id="path5244" class="cls-2" d="M528.46,392.07l-14.44.14v1.23l14.44-.14Z"/><path id="path5246" class="cls-2" d="M528.46,394.32l-14.44.14v1.23l14.44-.14Z"/><path id="path5248" class="cls-2" d="M528.46,396.51l-14.44.14v1.23l14.44-.14Z"/><path id="path5250" class="cls-2" d="M528.46,398.76,514,398.9v1.23l14.44-.14Z"/><path id="path5252" class="cls-2" d="M528.46,398.76,514,398.9v1.23l14.44-.14Z"/><path id="path5254" class="cls-2" d="M528.46,401.12l-14.44.13v1.23l14.44-.13Z"/><path id="path5258" class="cls-2" d="M516.78,347.75V349h10.16l2.91.27L530,348l-3-.27Z"/><path id="path5260" class="cls-2" d="M516.78,350.05v1.23h10.16l2.91.27.12-1.23-3-.28Z"/><path id="path5262" class="cls-2" d="M538.31,346.37l-5.68.27v1.23l5.7-.27,8.68.13v-1.23Z"/><path id="path5264" class="cls-2" d="M538.09,348.56l-5.44.27v1.23l5.47-.27,8.88,0v-1.23Z"/><path id="path5270" class="cls-2" d="M549.74,346.56v1.21l2.47.26v-1.2Z"/><path id="path5272" class="cls-2" d="M549.74,348.71v1.21l2.47.17v-1.21Z"/><path id="path5282" class="cls-2" d="M389,448.85l-.09,1.22a206.21,206.21,0,0,0,33.94.21l-.11-1.22a205.09,205.09,0,0,1-33.74-.21Z"/><path id="path5469" class="cls-2" d="M468.46,370v1.21l3.69,0V370Z"/><path id="path5473" class="cls-2" d="M468.46,373.44v1.21l3.69,0v-1.21Z"/><path id="path5475" class="cls-2" d="M468.46,375.8V377l3.69,0v-1.21Z"/><path id="path5477" class="cls-2" d="M468.46,379.21v1.21l3.69,0v-1.21Z"/><path id="path5479" class="cls-2" d="M468.46,381.58v1.21l3.69,0V381.6Z"/><path id="path5481" class="cls-2" d="M468.46,385.69v1.21l3.69,0v-1.21Z"/><path id="path5483" class="cls-2" d="M468.46,388.06v1.21l3.69,0v-1.21Z"/><path id="path5485" class="cls-2" d="M468.46,397.43v1.21l3.69,0v-1.21Z"/><path id="path5487" class="cls-2" d="M468.46,399.79V401l3.69,0v-1.21Z"/><path id="path5489" class="cls-2" d="M468.46,403.56v1.21l3.69,0v-1.21Z"/><path id="path5491" class="cls-2" d="M468.46,405.93v1.21l3.69,0V406Z"/><path id="path5493" class="cls-2" d="M468.46,411.82V413l3.69,0v-1.21Z"/><path id="path5495" class="cls-2" d="M468.46,414.18v1.21l3.69,0v-1.21Z"/><path id="path5497" class="cls-2" d="M468.46,417v1.21l3.69,0v-1.21Z"/><path id="path5499" class="cls-2" d="M468.46,419.41v1.21l3.69,0v-1.21Z"/><path id="path5505" class="cls-2" d="M468.46,391.24v1.21l3.69,0v-1.21Z"/><path id="path5507" class="cls-2" d="M473.66,369.82V371h3.69v-1.21Z"/><path id="path5700" class="cls-2" d="M473.66,373.41v1.21h3.69V373.4Z"/><path id="path5702" class="cls-2" d="M473.66,375.8V377h3.69v-1.21Z"/><path id="path5704" class="cls-2" d="M473.66,379.2v1.21h3.69v-1.21Z"/><path id="path5706" class="cls-2" d="M473.66,381.55v1.21h3.69v-1.21Z"/><path id="path5708" class="cls-2" d="M473.66,385.6v1.21h3.69v-1.21Z"/><path id="path5710" class="cls-2" d="M473.66,388v1.21h3.69V388Z"/><path id="path5712" class="cls-2" d="M473.66,391.39v1.21h3.69v-1.21Z"/><path id="path5716" class="cls-2" d="M473.66,397.38v1.21h3.69v-1.21Z"/><path id="path5718" class="cls-2" d="M473.66,399.76V401h3.69v-1.21Z"/><path id="path5720" class="cls-2" d="M473.66,403.16v1.21h3.69v-1.21Z"/><path id="path5722" class="cls-2" d="M473.66,405.52v1.21h3.69v-1.21Z"/><path id="path5724" class="cls-2" d="M473.66,411.65v1.21h3.69v-1.21Z"/><path id="path5726" class="cls-2" d="M473.66,414.15v1.21h3.69v-1.21Z"/><path id="path5728" class="cls-2" d="M473.66,417.06v1.21h3.69V417Z"/><path id="path5730" class="cls-2" d="M473.66,419.49v1.21h3.69v-1.21Z"/><path id="path5732" class="cls-2" d="M478.73,369.82V371h3.69v-1.21Z"/><path id="path5734" class="cls-2" d="M478.73,373.41v1.21h3.69V373.4Z"/><path id="path5736" class="cls-2" d="M478.73,375.8V377h3.69v-1.21Z"/><path id="path5738" class="cls-2" d="M478.73,379.2v1.21h3.69v-1.21Z"/><path id="path5740" class="cls-2" d="M478.73,381.55v1.21h3.69v-1.21Z"/><path id="path5742" class="cls-2" d="M478.73,385.6v1.21h3.69v-1.21Z"/><path id="path5744" class="cls-2" d="M478.73,388v1.21h3.69V388Z"/><path id="path5746" class="cls-2" d="M478.73,391.39v1.21h3.69v-1.21Z"/><path id="path5748" class="cls-2" d="M478.73,397.38v1.21h3.69v-1.21Z"/><path id="path5750" class="cls-2" d="M478.73,399.76V401h3.69v-1.21Z"/><path id="path5752" class="cls-2" d="M478.73,403.16v1.21h3.69v-1.21Z"/><path id="path5754" class="cls-2" d="M478.73,405.52v1.21h3.69v-1.21Z"/><path id="path5756" class="cls-2" d="M478.73,411.65v1.21h3.69v-1.21Z"/><path id="path5758" class="cls-2" d="M478.73,414.15v1.21h3.69v-1.21Z"/><path id="path5760" class="cls-2" d="M478.73,417.06v1.21h3.69V417Z"/><path id="path5762" class="cls-2" d="M478.73,419.49v1.21h3.69v-1.21Z"/><path id="path5764" class="cls-2" d="M483.74,369.82V371h3.69v-1.21Z"/><path id="path5766" class="cls-2" d="M483.74,373.41v1.21h3.69V373.4Z"/><path id="path5768" class="cls-2" d="M483.74,375.8V377h3.69v-1.21Z"/><path id="path5770" class="cls-2" d="M483.74,379.2v1.21h3.69v-1.21Z"/><path id="path5772" class="cls-2" d="M483.74,381.55v1.21h3.69v-1.21Z"/><path id="path5774" class="cls-2" d="M483.74,385.6v1.21h3.69v-1.21Z"/><path id="path5776" class="cls-2" d="M483.74,388v1.21h3.69V388Z"/><path id="path5778" class="cls-2" d="M483.74,391.39v1.21h3.69v-1.21Z"/><path id="path5780" class="cls-2" d="M483.74,397.38v1.21h3.69v-1.21Z"/><path id="path5782" class="cls-2" d="M483.74,399.76V401h3.69v-1.21Z"/><path id="path5784" class="cls-2" d="M483.74,403.16v1.21h3.69v-1.21Z"/><path id="path5786" class="cls-2" d="M483.74,405.52v1.21h3.69v-1.21Z"/><path id="path5788" class="cls-2" d="M483.74,411.65v1.21h3.69v-1.21Z"/><path id="path5790" class="cls-2" d="M483.74,414.15v1.21h3.69v-1.21Z"/><path id="path5792" class="cls-2" d="M483.74,417.06v1.21h3.69V417Z"/><path id="path5794" class="cls-2" d="M483.74,419.49v1.21h3.69v-1.21Z"/><path id="path5796" class="cls-2" d="M488.39,369.82V371h3.69v-1.21Z"/><path id="path5798" class="cls-2" d="M488.39,373.41v1.21h3.69V373.4Z"/><path id="path5800" class="cls-2" d="M488.39,375.8V377h3.69v-1.21Z"/><path id="path5802" class="cls-2" d="M488.39,379.2v1.21h3.69v-1.21Z"/><path id="path5804" class="cls-2" d="M488.39,381.55v1.21h3.69v-1.21Z"/><path id="path5806" class="cls-2" d="M488.39,385.6v1.21h3.69v-1.21Z"/><path id="path5808" class="cls-2" d="M488.39,388v1.21h3.69V388Z"/><path id="path5810" class="cls-2" d="M488.39,391.39v1.21h3.69v-1.21Z"/><path id="path5812" class="cls-2" d="M488.39,397.38v1.21h3.69v-1.21Z"/><path id="path5814" class="cls-2" d="M488.39,399.76V401h3.69v-1.21Z"/><path id="path5816" class="cls-2" d="M488.39,403.16v1.21h3.69v-1.21Z"/><path id="path5818" class="cls-2" d="M488.39,405.52v1.21h3.69v-1.21Z"/><path id="path5820" class="cls-2" d="M488.39,411.65v1.21h3.69v-1.21Z"/><path id="path5822" class="cls-2" d="M488.39,414.15v1.21h3.69v-1.21Z"/><path id="path5824" class="cls-2" d="M488.39,417.06v1.21h3.69V417Z"/><path id="path5826" class="cls-2" d="M488.39,419.49v1.21h3.69v-1.21Z"/><path id="path5828" class="cls-2" d="M493.19,369.82V371h3.69v-1.21Z"/><path id="path5830" class="cls-2" d="M493.19,373.41v1.21h3.69V373.4Z"/><path id="path5832" class="cls-2" d="M493.19,375.8V377h3.69v-1.21Z"/><path id="path5834" class="cls-2" d="M493.19,379.2v1.21h3.69v-1.21Z"/><path id="path5836" class="cls-2" d="M493.19,381.55v1.21h3.69v-1.21Z"/><path id="path5838" class="cls-2" d="M493.19,385.6v1.21h3.69v-1.21Z"/><path id="path5840" class="cls-2" d="M493.19,388v1.21h3.69V388Z"/><path id="path5842" class="cls-2" d="M493.19,391.39v1.21h3.69v-1.21Z"/><path id="path5844" class="cls-2" d="M493.19,397.38v1.21h3.69v-1.21Z"/><path id="path5846" class="cls-2" d="M493.19,399.76V401h3.69v-1.21Z"/><path id="path5848" class="cls-2" d="M493.19,403.16v1.21h3.69v-1.21Z"/><path id="path5850" class="cls-2" d="M493.19,405.52v1.21h3.69v-1.21Z"/><path id="path5852" class="cls-2" d="M493.19,411.65v1.21h3.69v-1.21Z"/><path id="path5854" class="cls-2" d="M493.19,414.15v1.21h3.69v-1.21Z"/><path id="path5856" class="cls-2" d="M493.19,417.06v1.21h3.69V417Z"/><path id="path5858" class="cls-2" d="M493.19,419.49v1.21h3.69v-1.21Z"/><path id="path5860" class="cls-2" d="M497.85,369.75V371h3.69v-1.21Z"/><path id="path5862" class="cls-2" d="M497.85,373.34v1.21h3.69v-1.21Z"/><path id="path5864" class="cls-2" d="M497.85,375.72v1.21h3.69v-1.21Z"/><path id="path5866" class="cls-2" d="M497.85,379.12v1.21h3.69v-1.21Z"/><path id="path5868" class="cls-2" d="M497.85,381.48v1.21h3.69v-1.21Z"/><path id="path5870" class="cls-2" d="M497.85,385.53v1.21h3.69v-1.21Z"/><path id="path5872" class="cls-2" d="M497.85,387.91v1.21h3.69V387.9Z"/><path id="path5874" class="cls-2" d="M497.85,391.31v1.21h3.69V391.3Z"/><path id="path5876" class="cls-2" d="M497.85,397.3v1.21h3.69v-1.21Z"/><path id="path5878" class="cls-2" d="M497.85,399.69v1.21h3.69v-1.21Z"/><path id="path5880" class="cls-2" d="M497.85,403.09v1.21h3.69v-1.21Z"/><path id="path5882" class="cls-2" d="M497.85,405.44v1.21h3.69v-1.21Z"/><path id="path5884" class="cls-2" d="M497.85,411.58v1.21h3.69v-1.21Z"/><path id="path5886" class="cls-2" d="M497.85,414.07v1.21h3.69v-1.21Z"/><path id="path5888" class="cls-2" d="M497.85,417v1.21h3.69V417Z"/><path id="path5890" class="cls-2" d="M497.85,419.41v1.21h3.69V419.4Z"/><path id="path5892" class="cls-2" d="M439.56,372v19.27h1.21V372Z"/><path id="path6001" class="cls-2" d="M455.31,377.43v3.82h11l-.2-3.77Z"/><path id="path6003" class="cls-2" d="M455.31,383.21V387h11l-.2-3.77Z"/><path id="path5087" class="cls-2" d="M351.91,398.06v52.05h1.2V398.06Z"/><path id="path6096" class="cls-8" d="M159.67,377.46v2.33l-27.89.07v-2.39h7.58l.11,0Z"/><path id="path6098" class="cls-8" d="M159.67,383.19v2.33l-27.89.07V383.2h7.58l.11,0Z"/><path id="path6100" class="cls-8" d="M159.67,389.58v2.33l-27.89.07v-2.39h7.58l.11,0Z"/><path id="path6102" class="cls-8" d="M159.67,395.68V398l-27.89.07v-2.39h7.58l.11,0Z"/><path id="path6106" class="cls-2" d="M115.65,376.76v3.77h13.09v-3.77H115.65Z"/><path id="path6108" class="cls-2" d="M115.65,382.53v3.75h13.09v-3.75H115.65Z"/><path id="path6110" class="cls-2" d="M115.65,388.88v3.73h13.09v-3.73H115.65Z"/><path id="path6252" class="cls-2" d="M197.25,411.42v33.4H199v-33.4Z"/><path id="path6254" class="cls-2" d="M200.93,411.42v33.4h1.77v-33.4Z"/><path id="path6256" class="cls-9" d="M204.6,411.42v33.4h1.78v-33.4Z"/><path id="path6258" class="cls-2" d="M208.64,411.42v33.4h1.77v-33.4Z"/><path id="path6260" class="cls-2" d="M193.4,411.42v33.4h1.78v-33.4Z"/><path id="path6262" class="cls-2" d="M189.84,411.42v33.4h1.78v-33.4Z"/><path id="path6264" class="cls-2" d="M189.84,411.42v33.4h1.78v-33.4Z"/><path id="path6266" class="cls-2" d="M186.28,411.42v33.4h1.78v-33.4Z"/><path id="path6268" class="cls-2" d="M182.6,411.42v33.4h1.77v-33.4Z"/><path id="path6270" class="cls-2" d="M179,411.42v33.4h1.77v-33.4Z"/><path id="path6272" class="cls-2" d="M175.19,411.42v3H177v-3Zm0,4.63v28.76H177V416Z"/><path id="path6274" class="cls-2" d="M171.63,411.42v33.4h1.78v-33.4Z"/><path id="path6276" class="cls-2" d="M171.63,411.42v3h1.78v-3Zm0,4.63v28.76h1.78V416Z"/><path id="path6278" class="cls-2" d="M168.07,411.42v3h1.78v-3Zm0,4.63v28.76h1.78V416Z"/><path id="path6280" class="cls-2" d="M164.39,411.4v3h1.77v-3Zm0,4.65v28.74h1.77V416Z"/><path id="path6294-3" class="cls-10" d="M75.76,392.67c-8.24-.09-16.47-.53-24.71-.06"/><path id="path6296-4" class="cls-10" d="M51.12,396c8.36-.22,16.5,0,24.71.06"/><path id="path6298-7" class="cls-10" d="M75.76,399.68l-24.68-.06"/><path id="path6300-3" class="cls-10" d="M75.82,403l-24.71-.06"/><path id="path6302-7" class="cls-10" d="M51.18,406.33l24.71.06"/><path id="path6304-7" class="cls-10" d="M75.79,410l-24.68-.06"/><path id="path6306-1" class="cls-10" d="M75.79,413.89l-24.68-.06"/><path id="path6355" class="cls-2" d="M149.4,411.17v3.21h1.77v-3.21Zm0,4.88v3.1h1.77V416Zm0,4.71v23.81h1.77V420.76Z"/><path id="path6357" class="cls-2" d="M153.07,411.23v3.15h1.77v-3.15Zm0,4.82v3.1h1.77V416Zm0,4.71v23.86h1.77V420.76Z"/><path id="path6359" class="cls-2" d="M156.75,411.28v7.86h1.78v-7.86Zm0,9.48v23.91h1.78V420.76Z"/><path id="path6361" class="cls-2" d="M160.78,411.35v3h1.77v-3Zm0,4.7v3.1h1.77V416Zm0,4.71v24h1.77v-24Z"/><path id="path6363" class="cls-2" d="M145.54,411.11v3.29h0v0h1.77v-3.26Zm0,4.91v3.12h1.78V416h-1.77v0Zm0,4.74v23.74h1.78V420.76Z"/><path id="path6367" class="cls-2" d="M142,411.06v3.34h1.78v-3.34Zm0,5v3.12h1.78V416Zm0,4.74v23.69h1.78V420.76Z"/><path id="path6369" class="cls-2" d="M138.42,411v3.4h1.78V411Zm0,5v3.12h1.78V416Zm0,4.74V444.4h1.78V420.76Z"/><path id="path6371" class="cls-2" d="M134.75,411v3.45h1.77V411Zm0,5.07v3.12h1.77V416Zm0,4.74v23.58h1.77V420.76Z"/><path id="path6373" class="cls-2" d="M131.18,410.89v3.51H133v-3.51Zm0,5.14v3.12H133V416Zm0,4.74v23.53H133V420.76Z"/><path id="path6375" class="cls-2" d="M127.34,410.83v3.57h1.77v-3.57Zm0,5.19v3.12h1.77V416Zm0,4.74v23.47h1.77V420.76Z"/><path id="path6379" class="cls-2" d="M123.77,410.78v3.62h1.78v-3.62Zm0,5.24v3.12h1.78V416Zm0,4.74v23.41h1.78V420.76Z"/><path id="path6381" class="cls-2" d="M120.21,410.73v3.67H122v-3.67Zm0,5.3v3.09H122V416Zm0,4.77v23.33H122V420.79Z"/><path id="path6401" class="cls-2" d="M130.22,328.27c-12.57,2.12-23.35,7.45-33.51,12v2.11c11.8-5.91,25.33-10.7,33.51-11.66Z"/><path id="path6460" class="cls-2" d="M129.41,326.3v47.29h1.21V326.3Z"/><path id="path6510" class="cls-2" d="M108.47,379.88s-2.68.31-4,.48l-3.91.52-3.84.52v2.11c1.48-.27,3-.52,4.68-.74s3.32-.41,5-.58L109,382Z"/><path id="path6512" class="cls-2" d="M108.47,376.19s-2.68.4-4,.61l-3.91.66-3.84.65v2.11c1.48-.32,3-.63,4.68-.9s3.32-.53,5-.75l2.57-.32Z"/><path id="path6514" class="cls-2" d="M108.47,383.38s-2.68.31-4,.48l-3.91.52-3.84.51V387c1.48-.27,3-.52,4.68-.74s3.32-.41,5-.57l2.57-.23Z"/><path id="path6516" class="cls-2" d="M108.88,386.92s-2.68.29-4,.45l-3.91.49-3.84.49v2.11c1.48-.26,3-.5,4.68-.7s3.32-.39,5-.54l2.57-.21Z"/><path id="path6520" class="cls-2" d="M108.47,390.81s-2.68.2-4,.31l-3.91.36-3.84.36V394c1.48-.21,3-.4,4.68-.55s3.32-.28,5-.37l2.57-.12Z"/><path id="path6524" class="cls-2" d="M108.47,401.56H96.71v2.08c1.48-.08,3,0,4.68,0s3.32-.06,5,0c.85,0,2.57,0,2.57,0Z"/><path id="path6528" class="cls-2" d="M97.19,407s2.68.08,4,.1l3.91,0,3.84,0V405.1c-1.48.06-3,.08-4.68.07s-3.32-.07-5-.14l-2.57-.14Z"/><path id="path6294-5" class="cls-2" d="M599.09,392.18v1.06l41.28.43v-1.06Z"/><path id="path6296-0" class="cls-2" d="M599.19,395.72v1.07l41.13.27V396Z"/><path id="path6298-0" class="cls-2" d="M599.61,399.52v1.07l40.51.19v-1.06Z"/><path id="path6300-2" class="cls-2" d="M640.2,402.82l-41.05.12V404l41.06-.11Z"/><path id="path6302-8" class="cls-2" d="M640,406.1l-40.85.12v1.07l40.86-.12Z"/><path id="path6304-5" class="cls-2" d="M640.4,409.72l-41.25.17V411l41.25-.17Z"/><path id="path6306-3" class="cls-2" d="M640.53,413.67l-41.8.25V415l41.79-.26Z"/><path id="path6294-5-2" class="cls-2" d="M598.26,392.37l-22,.58,0,1,22-.58Z"/><path id="path6296-0-2" class="cls-2" d="M598.22,395.77l-22.12.49,0,1,22.12-.48Z"/><path id="path6298-0-3" class="cls-2" d="M598.16,399.64l-22.07.25v1l22.07-.24Z"/><path id="path6300-2-8" class="cls-2" d="M598.22,403.08l-22.11.12v1l22.11-.12Z"/><path id="path6302-8-7" class="cls-2" d="M598.27,406.47l-22.11.12v1l22.11-.12Z"/><path id="path6304-5-6" class="cls-2" d="M598.19,410.09l-22.08.12v1l22.08-.12Z"/><path id="path6306-3-8" class="cls-2" d="M598.19,414l-22.08.12v1l22.08-.12Z"/><path id="path6657" class="cls-2" d="M455.31,371.51v4H466v-3.91Z"/><path id="path6661" class="cls-2" d="M455.31,383.21V387h11l-.2-3.77Z"/><path id="path6657-0" class="cls-2" d="M685.66,382.85v2.32l23.26.12v-2Z"/><path id="path6712" class="cls-2" d="M685.66,387.21v2.32l23.26.12v-2.22Z"/><path id="path6714" class="cls-2" d="M685.66,391.45v2.32l23.26.12v-2.22Z"/><path id="path6716" class="cls-2" d="M685.66,395.54v2.32l23.26.12v-2.22Z"/><path id="path6718" class="cls-2" d="M685.66,399.73V402l23.26-.28v-2Z"/><path id="path6720" class="cls-2" d="M685.66,404.09v2.32l23.26-.28v-2.22Z"/><path id="path6722" class="cls-2" d="M685.66,408.33v2.32l23.26-.28v-2.22Z"/><path id="path6724" class="cls-2" d="M685.66,412.42v2.32l23.26-.28v-2.22Z"/><path id="path6726" class="cls-2" d="M685.66,416.71V419l23.26-.28v-2Z"/><path id="path6728" class="cls-2" d="M685.66,421.06v2.32l23.26-.28v-2.22Z"/><path id="path6730" class="cls-2" d="M685.66,425.3v2.32l23.26-.28v-2.22Z"/><path id="path6732" class="cls-2" d="M685.66,429.4v2.32l23.26-.28v-2.22Z"/><path id="path6734" class="cls-2" d="M685.66,433.49v2.32l23.26-.28v-2.22Z"/><path id="path6736" class="cls-2" d="M662.08,378.35l-3.33.72.26,1.19,3.18-.69,17.15.56,0-1.22Z"/><path id="path6740" class="cls-2" d="M662.3,381.81h-.05l-1.82.28-1.28.2-.45.06c-.11,0-.27,0-.13,0v1.21a1.32,1.32,0,0,0,.3,0l.46-.06,1.3-.2,1.76-.28,16.87.43,0-1.22Z"/><path id="path6742" class="cls-2" d="M679.68,385.44l-17.44,0-3.49.32.12,1.21,3.43-.31,17.38,0Z"/><path id="path6744" class="cls-2" d="M679.57,388.63l-17,.07-3.93.49.15,1.21,3.85-.49,16.95-.07Z"/><path id="path6746" class="cls-2" d="M680.1,391.91l-17.65.11-3.79.28.09,1.21,3.76-.28,17.59-.11Z"/><path id="path6748" class="cls-2" d="M680.24,395.61l-17.83,0h-3.46v1.22h3.46l17.83,0Z"/><path id="path6750" class="cls-2" d="M658.72,399.36l-.11,1.21,3.07.29,18.17-.29,0-1.21-18.11.28Z"/><path id="path6752" class="cls-2" d="M658.95,402.94l-.28,1.18,3.46.83,17.59-.25,0-1.21-17.44.24Z"/><path id="path6754" class="cls-2" d="M659.1,406.67l-.44,1.14,3.15,1.21h.12l9-.16,6.2-.11,2.06,0,.59,0H680v-1.21h-.82l-2.07,0-6.19.11-8.86.16Z"/><path id="path6756" class="cls-2" d="M658.76,409.74l-.46,1.13,3.92,1.6,17.49-.14v-1.22l-17.25.14Z"/><path id="path6758" class="cls-2" d="M658.57,413.55l-.45,1.13,3.68,1.46,17.81-.18v-1.21l-17.57.17Z"/><path id="path6760" class="cls-2" d="M658.57,417.45l-.45,1.13L661.8,420l17.81-.18v-1.22l-17.57.18Z"/><path id="path6762" class="cls-2" d="M658.57,421.44l-.45,1.13L661.8,424l17.81-.18v-1.21l-17.57.18Z"/><path id="path6764" class="cls-2" d="M658.57,425.54l-.45,1.13,3.68,1.46,17.81-.18v-1.21l-17.57.17Z"/><path id="path6766" class="cls-2" d="M658.57,429.44l-.45,1.13L661.8,432l17.81-.17v-1.22l-17.57.18Z"/><path id="path5256" class="cls-2" d="M767.34,387.66l-32.95.15V389l33-.15Z"/><path id="path5259" class="cls-2" d="M767.27,390.47l-32,.3V392l32-.3Z"/><path id="path5261" class="cls-2" d="M768,393.75l-32.79.39v1.27l32.79-.39Z"/><path id="path5263" class="cls-2" d="M767.82,397.14s-29.53.4-32.78.4v1.27c3.35,0,32.8-.4,32.8-.4Z"/><path id="path5265" class="cls-2" d="M767.94,400.11l-33.23.4,0,1.31,33.23-.39Z"/><path id="path5267" class="cls-2" d="M772.29,373.75V375l22.57.21v-1.22Z"/><path id="path5269" class="cls-2" d="M772.48,376.54v1.21h22.38v-1.21Z"/><path id="path5271" class="cls-2" d="M772.29,379.54v1.21l22.57.2v-1.21Z"/><path id="path5273" class="cls-2" d="M795.25,382.35l-23.7.08v1.21l23.69-.08Z"/><path id="path5275" class="cls-2" d="M794.65,385.17l-22.69.15v1.21l22.69-.15Z"/><path id="path5277" class="cls-2" d="M794.6,388.25l-22.71.19v1.22l22.72-.19Z"/><path id="path5279" class="cls-2" d="M794.5,391.28l-22.62.2v1.23l22.62-.2Z"/><path id="path5281" class="cls-2" d="M794.41,394.2l-23.12.26v1.21l23.13-.26Z"/><path id="path5283" class="cls-2" d="M794.25,397.31s-18,.06-23,.19l0,1.21c4.88-.13,23-.19,23-.19Z"/><path id="path5285" class="cls-2" d="M794.85,400.11l-23.69.25,0,1.22,23.68-.26Z"/><path id="path5287" class="cls-2" d="M794.65,403.11l-23,.2v1.21l23-.2Z"/><path id="path5289" class="cls-2" d="M771.89,405.9v1.22l22.57.2V406.1Z"/><path id="path5291" class="cls-2" d="M794.76,409l-23.27.06v1.21l23.27-.06Z"/><path id="path5293" class="cls-2" d="M795.12,411.71l-23.64.18v1.22l23.64-.18Z"/><path id="path5295" class="cls-2" d="M794.45,414.55l-22.77.38,0,1.22,22.77-.38Z"/><path id="path5297" class="cls-2" d="M794.24,417.09l-22.37.6,0,1.21,22.37-.6Z"/><path id="path5299" class="cls-2" d="M733.74,385.33v49.74h1.21V386.54h31.94v46.72h1.22V385.33Z"/><path id="path5301" class="cls-2" d="M767.05,413.19l-32,.47,0,1.24,32-.47Z"/><path id="path5303" class="cls-2" d="M767.82,409.86l-32.79.38,0,1.27,32.79-.38Z"/><path id="path5305" class="cls-2" d="M767.61,406.47s-29.44.3-32.8.38l0,1.27c3.25-.08,32.78-.38,32.78-.38Z"/><path id="path5307" class="cls-2" d="M767.27,403.45l-32.8.4,0,1.31,32.8-.39Z"/><path id="path5309" class="cls-2" d="M767.15,416.65l-32,.47,0,1.24,32-.47Z"/><path id="path5311" class="cls-2" d="M767.15,420l-32.79.38,0,1.28,32.79-.39Z"/><path id="path5313" class="cls-2" d="M767.36,423.42c-3.25.08-32.78.38-32.78.38v1.28s29.44-.31,32.8-.39Z"/><path id="path5294" class="cls-2" d="M468.46,393.63v1.21l3.69,0v-1.21Z"/><path id="path5296" class="cls-2" d="M473.66,393.78V395h3.69v-1.21Z"/><path id="path5298" class="cls-2" d="M478.73,393.78V395h3.69v-1.21Z"/><path id="path5300" class="cls-2" d="M483.74,393.78V395h3.69v-1.21Z"/><path id="path5304" class="cls-2" d="M488.39,393.78V395h3.69v-1.21Z"/><path id="path5306" class="cls-2" d="M493.19,393.78V395h3.69v-1.21Z"/><path id="path5308" class="cls-2" d="M497.85,393.71v1.21h3.69v-1.21Z"/><path id="path5310" class="cls-2" d="M767.14,426l-32,1,0,1.24,32-1Z"/><path id="path5312" class="cls-2" d="M767.14,429.42l-32.79,1,0,1.27,32.79-1Z"/><path id="path5314" class="cls-2" d="M767.78,432.45l-33.21,1.33,0,1.28,33.22-1.34Z"/><path id="path5316" class="cls-2" d="M455.31,395.23v3.82l11-.06-.21-3.79Z"/><path id="path5318" class="cls-2" d="M455.31,401v3.82h11l-.2-3.77Z"/><path id="path5320" class="cls-2" d="M455.31,389.31v4l10.68,0v-3.91Z"/><path id="path5322" class="cls-2" d="M455.31,401v3.82l11-.07-.2-3.77Z"/><path id="path5324" class="cls-2" d="M115.65,395v3.78h13.09V395H115.65Z"/><path id="path5326" class="cls-8" d="M159.67,401.69V404l-27.89.07v-2.39h7.58l.11,0Z"/><path id="path5328" class="cls-2" d="M599.09,387.94V389l41.28.38v-1.07Z"/><path id="path5330" class="cls-2" d="M598.26,388.14l-22,.58,0,1,22-.58Z"/><path id="path5335" class="cls-2" d="M342.79,445.91l-39.11.51,0,1.21,39.11-.5Z"/><path id="path5361" class="cls-2" d="M348.16,395.79V397l100.81.43,3.57,1.86.56-1.07-3.83-2Z"/><path id="path5369" class="cls-2" d="M215.3,409.26V449l4.91,1.56.37-1.16-4.06-1.28V410.58l3.93.35.11-1.21Z"/><path id="path5371" class="cls-2" d="M215.3,409.18v1.23H233v-1.23Z"/><path id="path5371-8" class="cls-2" d="M252.71,408.89v1.23l36.82.25v-1.23Z"/><path id="path5388" class="cls-2" d="M287.71,409l-.07,1.21,3.58.21.07-1.21Z"/><path id="path5390" class="cls-2" d="M114.8,398.67l-5.63.4.08,1.21,5.63-.4Z"/><path id="path5392" class="cls-2" d="M97.14,410.18s2.68.12,4,.16l3.91.1,3.84.1v-2.11c-1.48,0-3,0-4.68,0s-3.32-.12-5-.23L96.61,408Z"/><path id="path5394" class="cls-2" d="M97.19,413.24s2.68.15,4,.21l3.91.15,3.84.14v-2.11c-1.48,0-3,0-4.68-.06s-3.32-.16-5-.29l-2.57-.21Z"/><path id="path5396" class="cls-2" d="M97.17,416.5s2.68.18,4,.26l3.91.19,3.84.19V415c-1.48,0-3,0-4.68-.12s-3.32-.2-5-.34l-2.57-.24Z"/><path id="path5398" class="cls-2" d="M97.24,419.67s2.68.23,4,.33l3.91.27,3.84.26v-2.11c-1.48,0-3-.1-4.68-.21s-3.32-.26-5-.44l-2.57-.29Z"/><path id="path5404" class="cls-2" d="M97.24,426.08s2.68.29,4,.42l3.91.36,3.84.35V425.1c-1.48-.06-3-.16-4.68-.31s-3.32-.33-5-.55l-2.57-.35Z"/><path id="path5406" class="cls-2" d="M97,422.87s2.68.26,4,.37l3.91.31,3.84.3v-2.11c-1.48,0-3-.13-4.68-.26s-3.32-.3-5-.49l-2.57-.32Z"/><path id="path5416" class="cls-2" d="M108.47,394.48s-2.68.1-4,.16l-3.91.22-3.84.22v2.11c1.48-.16,3-.28,4.68-.37s3.32-.15,5-.18l2.57,0Z"/><path id="path5420" class="cls-2" d="M108.47,398.25s-2.68,0-4,0l-3.91.1-3.84.11v2.11c1.48-.12,3-.19,4.68-.24s3.32-.06,5,0l2.57,0Z"/><path id="path5430" class="cls-2" d="M130.22,355.85c-12.57.11-23.35,3.72-33.51,6.62v2.11c11.8-4,22.5-6.61,33.51-6.61Z"/><path id="path5432" class="cls-2" d="M130.22,352.31c-12.57.29-23.35,4.06-33.51,7.1v2.11c11.8-4.19,22.5-6.93,33.51-7.09Z"/><path id="path5434" class="cls-2" d="M130.22,348.33c-12.57.61-23.35,4.66-33.51,8v2.11c11.8-4.5,22.5-7.52,33.51-8Z"/><path id="path5436" class="cls-2" d="M130.5,344.38c-12.57.87-23.35,5.14-33.51,8.66v2.11c11.8-4.74,22.5-8,33.51-8.65Z"/><path id="path5438" class="cls-2" d="M130.5,340.65c-12.57,1.13-23.35,5.62-33.51,9.35v2.11c11.8-5,22.5-8.44,33.51-9.34Z"/><path id="path5440" class="cls-2" d="M130.5,336.57C117.93,338,107.15,342.8,97,346.79v2.11c11.8-5.29,22.5-9,33.51-10.21Z"/><path id="path5442" class="cls-2" d="M130.5,332.5c-12.57,1.68-23.35,6.64-33.51,10.8v2.11c11.8-5.5,22.5-9.42,33.51-10.79Z"/><path id="path5444" class="cls-2" d="M96.55,437.63l-.33,1.16c2.75.76,5.36,1.48,7.51,2a29.71,29.71,0,0,0,4.77.93l.05-1.21a31.92,31.92,0,0,1-4.53-.9c-2.13-.53-4.74-1.23-7.48-2Z"/><path id="path5446" class="cls-2" d="M130.22,359c-12.57.11-23.35,3.72-33.51,6.62v2.11c11.8-4,22.5-6.61,33.51-6.61Z"/><path id="path5449" class="cls-2" d="M130.22,362.83c-12.57-.07-23.35,3.4-33.51,6.15v2.11c11.8-3.86,29.91-6.86,33.51-6.15Z"/><path id="path5451" class="cls-2" d="M130.22,328.27c-12.57,2.12-23.35,7.45-33.51,12v2.11c11.8-5.91,25.33-10.7,33.51-11.66Z"/><path id="path5453" class="cls-2" d="M130.22,355.85c-12.57.11-23.35,3.72-33.51,6.62v2.11c11.8-4,22.5-6.61,33.51-6.61Z"/><path id="path5455" class="cls-2" d="M130.22,352.31c-12.57.29-23.35,4.06-33.51,7.1v2.11c11.8-4.19,22.5-6.93,33.51-7.09Z"/><path id="path5457" class="cls-2" d="M130.22,348.33c-12.57.61-23.35,4.66-33.51,8v2.11c11.8-4.5,22.5-7.52,33.51-8Z"/><path id="path5459" class="cls-2" d="M130.5,340.65c-12.57,1.13-23.35,5.62-33.51,9.35v2.11c11.8-5,22.5-8.44,33.51-9.34Z"/><path id="path5461" class="cls-2" d="M130.5,336.57C117.93,338,107.15,342.8,97,346.79v2.11c11.8-5.29,22.5-9,33.51-10.21Z"/><path id="path5463" class="cls-2" d="M130.5,332.5c-12.57,1.68-23.35,6.64-33.51,10.8v2.11c11.8-5.5,22.5-9.42,33.51-10.79Z"/><path id="path5468" class="cls-2" d="M135.76,360c13.62.11,25.45,3.75,36.46,6.68v2.13c-12.79-4.06-24.53-6.67-36.46-6.67Z"/><path id="path5470" class="cls-2" d="M135.59,363.45c13.43.09,25,3.71,35.81,6.63v2.13c-12.62-4-32-7.3-35.81-6.62Z"/><path id="path5472" class="cls-2" d="M135.69,329c13.62,2.14,25.45,7.52,36.46,12.09v2.13c-12.79-6-27.6-10.81-36.46-11.77Z"/><path id="path5474" class="cls-2" d="M135.69,356.87c13.62.11,25.45,3.75,36.46,6.68v2.13c-12.79-4.06-24.53-6.67-36.46-6.67Z"/><path id="path5476" class="cls-2" d="M135.69,353.08c13.62.29,25.45,4.09,36.46,7.17v2.13c-12.79-4.24-24.53-7-36.46-7.16Z"/><path id="path5478" class="cls-2" d="M135.69,349.28c13.62.62,25.45,4.71,36.46,8.05v2.13c-12.79-4.55-24.53-7.59-36.46-8Z"/><path id="path5480" class="cls-2" d="M135.69,341.52c13.54,1.14,25.22,5.67,36.17,9.44v2.13c-12.72-5-24.3-8.52-36.17-9.43Z"/><path id="path5482" class="cls-2" d="M135.69,337.41c13.54,1.47,25.22,6.29,36.17,10.32v2.13c-12.72-5.35-24.3-9.12-36.17-10.31Z"/><path id="path5484" class="cls-2" d="M135.69,333.29c13.54,1.69,25.22,6.7,36.17,10.91v2.13c-12.72-5.55-24.3-9.51-36.17-10.9Z"/><path id="path5488" class="cls-2" d="M135.69,345.25c13.62.92,25.16,5.27,36.17,8.85v2.13c-12.79-4.83-24.24-8.13-36.17-8.84Z"/><path id="path5494" class="cls-2" d="M135.59,367a81.35,81.35,0,0,1,9.73.66c3.14.4,6.18,1,9.14,1.59s5.84,1.37,8.65,2.12,3.89,1.12,3.89,1.12l-1.52.51a11.14,11.14,0,0,1-4.65-.42,31.24,31.24,0,0,0-5-1.14c-1.82-.38-3-.57-4.76-.88s-3.45-.47-5-.69-3.77-.41-5-.55-2.4-.22-3.32-.25a12.72,12.72,0,0,0-2.13,0Z"/><path id="path5496" class="cls-2" d="M135.36,370.43a81.35,81.35,0,0,1,9.73.66c3.14.4,11.67,2.16,11.67,2.16l-5.92.74s-3.15-.5-4.69-.73-3.54-.38-5.35-.51c-1.28-.1-2.4-.22-3.32-.25a12.72,12.72,0,0,0-2.13,0Z"/><path id="path5498" class="cls-3" d="M75.6,448.58l3,1"/><path id="path5502" class="cls-2" d="M352.52,448.84V450H388.9v-1.21Z"/><path id="path5506" class="cls-2" d="M718.61,447.39v1.21H725l5.12,1.44.32-1.16-5.28-1.48Z"/><path id="path5510" class="cls-2" d="M716.19,447.16l-4.83.07,0,1.22,4.83-.08Z"/><path id="path5512" class="cls-2" d="M658.51,447.87l-.45,1.13,3.18,1.25,18.66-.94-.06-1.21-18.4.92Z"/><path id="path5514" class="cls-2" d="M794.83,445.92l-24,1.47.07,1.21,24-1.47Z"/><path id="path5532" class="cls-2" d="M730,449.39v1.22h41.22v-1.22Z"/><path id="path5534" class="cls-2" d="M683.17,449.28v1.22h27.95v-1.22Z"/><path id="path5536" class="cls-2" d="M645,447.68v1.21h13.28v-1.21Z"/><path id="path5538" class="cls-2" d="M576.36,448.54l-.07,1.21,22.19,1.18h42.85v-1.22H598.51Z"/><path id="path5540" class="cls-2" d="M569.13,448.8V450h7.12V448.8Z"/><path id="path5542" class="cls-2" d="M556.91,447.82l-.1,1.21,12.42,1,.09-1.21Z"/><path id="path5544" class="cls-2" d="M556.69,448.58l-5.87.9H538.33l-9.27-.75-.1,1.21,9.32.76h12.65l5.95-.92Z"/><path id="path5546" class="cls-2" d="M511.83,449.18v1.22h17.59v-1.22Z"/><path id="path5548" class="cls-11" d="M92.76,449.69H78.25"/><path id="path5550" class="cls-3" d="M115.09,450h98.42"/><path id="path5552" class="cls-2" d="M220.22,449.2v1.22h71V449.2Z"/><path id="path5554" class="cls-12" d="M12.61,449.89H42.36"/><path id="path5556" class="cls-3" d="M8.11,449.78l4.93-.11"/><path id="path5558" class="cls-3" d="M46.77,449.41l-4.52,0"/><path id="path5560" class="cls-2" d="M465.8,444.46l-12.85.21,0,1.22,12.84-.21Z"/><path id="path5504" class="cls-2" d="M423,449v1.22h29.7V449Z"/><path id="path6294" class="cls-2" d="M290,416.93l-69.73.12v1.06l69.73-.12Z"/><path id="path6296" class="cls-2" d="M290.23,420.32l-69.73.12v1.07l69.73-.12Z"/><path id="path6298" class="cls-2" d="M290,423.94l-69.65.12v1.07L290,425Z"/><path id="path6300" class="cls-2" d="M290.21,427.25l-69.73.12v1.07l69.73-.12Z"/><path id="path6302" class="cls-2" d="M290.39,430.64l-69.73.12v1.07l69.73-.12Z"/><path id="path6304" class="cls-2" d="M290.12,434.26l-69.65.12v1.06l69.65-.12Z"/><path id="path6306" class="cls-2" d="M290.12,438.13l-69.65.13v1.06l69.65-.12Z"/><path id="path5663" class="cls-13" d="M54.39,381.25v5.84"/><path id="path5665" class="cls-13" d="M58.33,381.25v5.84"/><path id="path5667" class="cls-13" d="M62.53,381.25v5.84"/><path id="path5669" class="cls-13" d="M66.7,381.25v5.84"/><path id="path5671" class="cls-13" d="M70.45,381.25v5.84"/><path id="path7718" class="cls-14" d="M53.16,380.65V387h.3v-6.33Z"/><path id="path7720" class="cls-14" d="M57,380.51v6.33h.3v-6.33Z"/><path id="path7722" class="cls-14" d="M60.4,380.65V387h.3v-6.33Z"/><path id="path7724" class="cls-14" d="M64.13,380.51v6.33h.3v-6.33Z"/><path id="path7726" class="cls-14" d="M67.94,380.51v6.33h.3v-6.33Z"/><path id="path7728" class="cls-14" d="M71.1,380.51v6.33h.3v-6.33Z"/><path id="path5089" class="cls-2" d="M352.85,418.34l0,1.83,36.2.75,0-1.83Z"/><path id="path5091" class="cls-2" d="M352.85,415.81l0,1.83,36.2.75,0-1.83Z"/><path id="path5093" class="cls-2" d="M352.85,413.33l0,1.83,36.2.7,0-1.83Z"/><path id="path5095" class="cls-2" d="M352.84,411.11l0,1.83,36.09.38,0-1.82Z"/><path id="path5099" class="cls-2" d="M352.79,408.52l0,1.83,36.13.44,0-1.82Z"/><path id="path5284" class="cls-2" d="M352.85,403.3l0,1.83,36.2.6,0-1.83Z"/><path id="path5286" class="cls-2" d="M352.85,400.62l0,1.83,36.2.75,0-1.83Z"/><path id="path5290" class="cls-2" d="M352.84,441.5l0,1.83,36.09.38,0-1.82Z"/><path id="path5292" class="cls-2" d="M352.79,438.91l0,1.83,36.13.44,0-1.83Z"/><path id="path5302" class="cls-2" d="M352.79,406l0,1.83,36.13.44,0-1.83Z"/><path id="path5334" class="cls-2" d="M352.85,436.22l0,1.83,36.2.6,0-1.83Z"/><path id="path5336" class="cls-2" d="M352.85,433.54l0,1.83,36.2.75,0-1.83Z"/><path id="path5338" class="cls-2" d="M352.85,431.06l0,1.83,36.2.7,0-1.83Z"/><path id="path5340" class="cls-2" d="M352.84,428.83l0,1.83,36.09.39,0-1.83Z"/><path id="path5342" class="cls-2" d="M352.79,423.72l0,1.83,36.13.44,0-1.82Z"/><path id="path5350" class="cls-2" d="M352.84,426.3l0,1.83,36.09.38,0-1.82Z"/><path id="path5352" class="cls-2" d="M352.69,421.19l0,1.83,36.13.44,0-1.83Z"/><path id="path5109" class="cls-2" d="M452.43,401.71l-29.35.28,0,1.83,29.35-.28Z"/><path id="path5111" class="cls-2" d="M452.43,404.17l-29.68.28,0,1.82,29.68-.27Z"/><path id="path5113" class="cls-2" d="M452.73,406.61l-30,.33,0,1.83,30-.33Z"/><path id="path5115" class="cls-2" d="M452.36,409c.17,0-.1,0-.34,0l-1,0-3.43,0-10.16.1-14.6.13,0,1.82,14.6-.13,10.16-.1,3.44,0,1,0a3.75,3.75,0,0,0,.53,0Z"/><path id="path5117" class="cls-2" d="M452.47,411.55l-29.72.17v1.83l29.72-.17Z"/><path id="path5119" class="cls-2" d="M452.42,414l-29.44.22V416l29.44-.22Z"/><path id="path5121" class="cls-2" d="M452.36,416.38l-28.92.15v1.83l28.92-.15Z"/><path id="path5280" class="cls-2" d="M452.36,418.88l-28.92.23v1.82l28.92-.22Z"/><path id="path5354" class="cls-2" d="M452.47,421.32l-29.72.18v1.82l29.72-.17Z"/><path id="path5356" class="cls-2" d="M452.42,423.74,423,424v1.83l29.44-.22Z"/><path id="path5358" class="cls-2" d="M452.36,426.15l-28.92.15v1.83l28.92-.15Z"/><path id="path5360" class="cls-2" d="M452.36,428.73l-28.92.22v1.83l28.92-.22Z"/><path id="path5370" class="cls-2" d="M452.36,431.37l-28.92.15v1.83l28.92-.15Z"/><path id="path5372" class="cls-2" d="M452.36,433.9l-28.92.23V436l28.92-.22Z"/><path id="path5374" class="cls-2" d="M452.36,436.42l-28.92.22v1.83l28.92-.23Z"/><path id="path5448" class="cls-2" d="M452.36,438.77l-28.92.22v1.83l28.92-.22Z"/><path id="path5450" class="cls-2" d="M452.36,441.51l-28.92.22v1.83l28.92-.22Z"/></g><g id="layer7"><path id="path5288" class="cls-2" d="M352.85,420.95l0,1.83,36.2.69,0-1.82Z"/><path id="path5906" class="cls-15" d="M355.51,400v45.11h.34V400Z"/><path id="path5908" class="cls-15" d="M358.1,400v45.11h.34V400Z"/><path id="path5910" class="cls-15" d="M360.86,400.19V445.3h.34V400.19Z"/><path id="path5914" class="cls-15" d="M365.78,400v45.11h.34V400Z"/><path id="path5918" class="cls-15" d="M370.49,400v45.11h.34V400Z"/><path id="path5920" class="cls-15" d="M373.3,400.3v45.11h.34V400.3Z"/><path id="path5922" class="cls-15" d="M376.22,400.3v45.11h.34V400.3Z"/><path id="path5924" class="cls-15" d="M363.46,400v45.11h.34V400Z"/><path id="path5928" class="cls-15" d="M367.87,400v45.11h.34V400Z"/><path id="path5936" class="cls-15" d="M379.18,400.3v45.11h.34V400.3Z"/><path id="path5938" class="cls-15" d="M381.93,400.47v45.11h.34V400.47Z"/><path id="path5940" class="cls-15" d="M385,400.41v45.11h.34V400.41Z"/><path id="path5980" class="cls-15" d="M353.12,400v45.11h.34V400Z"/><path id="path5452" class="cls-16" d="M393.57,400.47v41.44h.75V400.47Z"/><path id="path5454" class="cls-16" d="M398.93,400.47v41.44h.75V400.47Z"/><path id="path5456" class="cls-16" d="M403.32,400.47v41.44h.75V400.47Z"/><path id="path5458" class="cls-16" d="M407.39,400.47v41.44h.76V400.47Z"/><path id="path5460" class="cls-16" d="M411.67,400.47v41.44h.75V400.47Z"/><path id="path5462" class="cls-16" d="M416.39,400.47v41.44h.75V400.47Z"/><path id="path5950" class="cls-17" d="M428.52,401.29V446.1h.34V401.29Z"/><path id="path5954" class="cls-17" d="M425.53,401.29V446.1h.34V401.29Z"/><path id="path5956" class="cls-17" d="M433.8,401.29V446.1h.34V401.29Z"/><path id="path5958" class="cls-17" d="M431.43,401.29V446.1h.34V401.29Z"/><path id="path5962" class="cls-17" d="M439,401.37v44.81h.34V401.37Z"/><path id="path5966" class="cls-17" d="M436.27,401.37v44.81h.34V401.37Z"/><path id="path5968" class="cls-17" d="M444.28,401.37v44.81h.34V401.37Z"/><path id="path5970" class="cls-17" d="M441.92,401.37v44.81h.34V401.37Z"/><path id="path5974" class="cls-17" d="M449.4,401.37v44.81h.34V401.37Z"/><path id="path5976" class="cls-17" d="M447,401.37v44.81h.34V401.37Z"/><path id="path6413" class="cls-18" d="M101.82,337l.07,101.23h.92L102.74,337Z"/><path id="path6411" class="cls-18" d="M107.85,334.49v34.42h.92V334.49Z"/><path id="path6409" class="cls-18" d="M114.82,332v37.06h.91V332Z"/><path id="path6407" class="cls-18" d="M121.26,329.37v39.54h.91V329.37Z"/><path id="path6472" class="cls-18" d="M151.45,333v40.17h.9V333Z"/><path id="path6474" class="cls-18" d="M143.22,330.38v42.8h.91v-42.8Z"/><path id="path6476" class="cls-18" d="M159.64,335.54V373h.94V335.54Z"/><path id="path6478" class="cls-18" d="M168.07,339.27V371H169V339.27Z"/><path id="path6005" class="cls-19" d="M152.24,414.38V416h58.64v-1.67Z"/><path id="path6284" class="cls-19" d="M163.53,419.12v1.67h47.35v-1.67Z"/><path id="path6286" class="cls-19" d="M161.4,423.91v1.66h49.49v-1.66Z"/><path id="path6288" class="cls-19" d="M161.4,428.9v1.67h49.49V428.9Z"/><path id="path6290" class="cls-19" d="M161.4,433.86v1.67h49.49v-1.67Z"/><path id="path6292" class="cls-19" d="M161.4,438.8v1.67h49.49V438.8Z"/><path id="path6389" class="cls-19" d="M116.57,423.94v1.62H163v-1.62Z"/><path id="path6391" class="cls-19" d="M116.57,428.93v1.62H163v-1.62Z"/><path id="path6393" class="cls-19" d="M116.57,433.88v1.62H163v-1.62Z"/><path id="path6395" class="cls-19" d="M116.57,438.83v1.62H163v-1.62Z"/></g></svg>