<?xml version="1.0" encoding="utf-8"?>
<!-- Generator: Adobe Illustrator 19.0.0, SVG Export Plug-In . SVG Version: 6.00 Build 0)  -->
<svg version="1.1" id="Layer_1" xmlns="http://www.w3.org/2000/svg" xmlns:xlink="http://www.w3.org/1999/xlink" x="0px" y="0px"
	 viewBox="-252 347 105.2 99" style="enable-background:new -252 347 105.2 99;" xml:space="preserve">
<style type="text/css">
	.st0{fill:none;stroke:#1AC7DC;stroke-width:6;stroke-miterlimit:10;}
	.st1{fill:#1AC7DC;}
</style>
<path class="st0" d="M-184.3,416.2h31.2c1.7,0,3-1.3,3-3v-59.8c0-1.6-1.3-3-3-3h-92.7c-1.7,0-3,1.4-3,3v59.8c0,1.6,1.3,3,3,3h42.2
	c0-0.1,0-0.2,0-0.2"/>
<polyline id="XMLID_2_" class="st0" points="-245.6,350.4 -199.3,383.3 -150,353.4 "/>
<path class="st1" d="M-198.4,395.8c-13.7,0-24.8,11.1-24.8,24.8s11.1,24.8,24.8,24.8s24.8-11.1,24.8-24.8S-184.8,395.8-198.4,395.8z
	 M-187.7,416.4L-187.7,416.4l-12.3,12.3c-0.7,0.7-1.6,1-2.5,1c0,0-0.1,0-0.1,0c-0.9,0-1.8-0.4-2.4-1.1l-4-4
	c-1.3-1.3-1.6-3.1-0.7-4.3c0.4-0.5,0.9-0.7,1.5-0.8c0.9-0.1,2,0.3,2.9,1.1l2.5,2.5c0.2,0.2,0.5,0.2,0.7,0l10.4-10.5
	c0.6-0.6,1.3-1,2-1.1c0.9-0.2,1.8,0,2.4,0.6C-186.2,413.1-186.4,414.9-187.7,416.4z"/>
</svg>
