<?xml version="1.0" encoding="utf-8"?>
<!-- Generator: Adobe Illustrator 20.1.0, SVG Export Plug-In . SVG Version: 6.00 Build 0)  -->
<svg version="1.1" id="Layer_1" xmlns="http://www.w3.org/2000/svg" xmlns:xlink="http://www.w3.org/1999/xlink" x="0px" y="0px"
	 viewBox="0 0 800 450" style="enable-background:new 0 0 800 450;" xml:space="preserve">
<style type="text/css">
	.st0{fill:#80D8FF;}
	.st1{fill:#E1F5FE;}
	.st2{fill:#FFE082;}
	.st3{fill:#FFFFFF;}
	.st4{opacity:0.87;}
	.st5{fill:#231F20;}
</style>
<title>Artboard 1</title>
<rect class="st0" width="800" height="450"/>
<path class="st1" d="M504.3,117.9v-0.2c0-16.6,13.5-30.1,30.1-30.1c12.1,0,23,7.3,27.7,18.5c0.8-0.1,1.5-0.1,2.3-0.1
	c12.1,0,21.9,9.8,21.9,21.9l0,0c0,2-0.3,4-0.8,6h-95.2C490.3,125.8,496.3,119,504.3,117.9z"/>
<circle class="st2" cx="584.2" cy="110.8" r="45.9"/>
<path class="st3" d="M695.2,146.9v-0.2c0-22.5-18.3-40.7-40.8-40.7c-16.4,0-31.2,9.9-37.5,25c-1-0.1-2.1-0.2-3.1-0.2
	c-16.4,0-29.6,13.3-29.6,29.6c0,2.8,0.4,5.5,1.1,8.2h128.8C714.2,157.6,706.1,148.3,695.2,146.9z"/>
<g class="st4">
	<polygon class="st5" points="797.8,342.3 797.8,332.5 791.3,332.5 791.3,323.7 784.3,323.7 784.3,332.5 779.3,332.5 779.3,319.3 
		767.2,319.3 767.2,326 762.7,326 762.7,342.1 759.2,342.1 759.2,312.9 747.2,312.9 747.2,342.1 744.7,342.1 744.7,308.9 
		731.1,308.9 731.1,265.2 725,265.2 725,260.2 721.7,260.2 720.8,242.4 719.8,260.2 716.7,260.2 716.7,265.2 714.5,265.2 
		712.4,265.2 712.4,260.2 709.3,260.2 708.3,242.4 707.4,260.2 704.1,260.2 704.1,265.2 698,265.2 698,308.9 684.4,308.9 
		684.4,342.1 681.9,342.1 681.9,312.9 677.3,312.9 677.3,229.4 671.3,229.4 671.3,225.3 664.6,225.3 663.3,204.6 662,225.3 
		655.2,225.3 655.2,229.4 652.8,229.4 652.2,219.7 651.6,229.4 649.2,229.4 649.2,332.5 644.8,332.5 644.8,323.7 644.1,323.7 
		644.1,276.9 641.1,276.9 641.1,269.1 625.5,269.1 625.5,262.3 616.3,262.3 616.3,269.1 600,269.1 600,266.1 591.9,266.1 
		591.9,269.1 584.7,269.1 584.7,276.9 578.6,276.9 578.6,317.7 577,317.7 577,310.3 564,310.3 564,299.4 553.5,299.4 553.5,279.3 
		549.8,279.3 549.8,273.8 543.9,273.8 543.9,279.3 539.4,279.3 539.4,299.4 535.6,299.4 535.6,303 531.9,303 531.9,309.1 
		528.9,309.1 528.9,290.8 528.9,287.8 521.1,287.8 521.1,290.8 513.3,290.8 513.3,303.9 502.4,303.9 502.4,300.7 501.1,300.7 
		501.1,281.1 498.4,281.1 497,259.8 495.7,281.1 490.9,281.1 489.7,254.4 488.4,281.1 484,281.1 484,300.7 482.8,300.7 482.8,296.5 
		476.2,296.5 476.2,295.4 474.4,295.4 474.4,281.8 465.7,281.8 465.7,270.7 456.6,270.7 456.6,256.5 450.1,256.5 450.1,249.8 
		418.6,249.8 418.6,256.5 412,256.5 412,270.7 403,270.7 403,281.8 394.3,281.8 394.3,286 380.8,286 380.8,330.6 377.8,330.6 
		377.8,328 375.3,328 375.3,312.9 367.8,312.9 367.8,219.6 359,203.3 350.3,219.6 350.3,303.9 345.2,303.9 345.2,287.8 340.9,287.8 
		340.7,286 340.7,282.3 340.3,282.3 339.1,272.1 339.1,282.3 336.7,282.3 336.7,287.8 331.6,287.8 331.6,282.3 331.1,282.3 
		331.1,272.1 330,282.3 327.1,282.3 327.1,287.8 323.1,287.8 323.1,328 319.1,328 319.1,308.9 316.1,308.9 316.1,305.9 296,305.9 
		296,328 281.5,328 281.5,282.3 277.4,282.3 277.4,214.9 272.8,214.9 272.8,210.8 269.8,210.8 269.8,208.1 258.2,208.1 258.2,210.8 
		255.1,210.8 255.1,214.9 254.9,214.9 250.3,214.9 250.3,282.3 246.8,282.3 246.8,325.5 238.8,325.5 238.8,330.6 229.8,330.6 
		229.8,299.4 227.3,299.4 227.3,273.8 222.7,273.8 222.7,268.2 209.2,268.2 209.2,273.8 204.7,273.8 204.7,299.4 202.2,299.4 
		202.2,308.8 188.4,308.8 188.4,321.8 177.1,321.8 177.1,312.9 163.9,312.9 163.9,308.9 135,308.9 135,261.3 132.9,261.3 
		132.9,256.3 129.8,256.3 128.8,238.5 127.9,256.3 124.6,256.3 124.6,261.3 118.5,261.3 118.5,305 104.9,305 104.9,338.2 
		102.4,338.2 102.4,309 90.4,309 90.4,338.2 86.8,338.2 86.8,322 82.3,322 82.3,315.3 70.3,315.3 70.3,328.6 65.3,328.6 65.3,319.8 
		58.2,319.8 58.2,328.6 55.2,328.6 55.2,309 27.9,309 27.9,313.7 19.6,313.7 19.6,338.2 0.5,342.3 0,342.3 0,450 800,450 800,342.3 
			"/>
	<path class="st5" d="M430.4,165.5c1.7,0.8,3.3,1.7,4.8,2.8c1.3,1,1.3,1.1,0,2.3c-0.3,0.2-0.5,0.5-0.5,0.9c0.1,0.9,0.4,1.7,1,2.4
		c0.3,0.2,0.6,0.4,0.9,0.5c0.4-1.2,0.3-2.6,1.3-3.3c0.2,0.1,0.3,0.2,0.5,0.4c0.9,1.3,1.8,2.7,2.7,4c0.2,0.3,0.3,0.6,0.5,0.8
		c0.1,0.1,0.4,0.2,0.5,0.1c0.2-0.2,0.3-0.4,0.3-0.6c0-0.2,0-0.3,0-0.4c-0.4-1.8-0.7-3.5-1.1-5.2c-0.1-0.7-0.5-1.3-1.1-1.7
		c-1-0.6-1.5-1.7-1.3-2.9c0-0.3,0-0.5-0.1-0.8c-0.2,0-0.3,0-0.3,0c-0.1,0.1-0.2,0.1-0.3,0.2c-0.8,0.8-0.8,0.8-1.5-0.1
		c-0.3-0.4-0.7-0.8-1.1-1c-2-0.6-4-0.8-6.1-0.6c-0.2,0-0.6,0.3-0.6,0.5c0,0.3,0.1,0.6,0.3,0.9C429.6,165.1,430,165.4,430.4,165.5z"
		/>
	<path class="st5" d="M384.3,180.8c0.3,0,0.5-0.1,0.7-0.3c0.6-0.6,1.3-1.1,2-1.5c0.7-0.5,1.6-0.4,2.2,0.1c0.6,0.4,0.9,1.2,0.6,1.9
		c-0.2,0.5-0.3,0.9-0.4,1.4c-0.1,0.3,0,0.7,0.1,1c0.4,0.6,1.1,0.9,1.7,0.8c0.6-0.1,0.8-0.4,0.8-1.2c0-0.3-0.1-0.7-0.1-1
		c-0.2-1.2,0.1-1.8,1.4-1.4c0.4,0.1,0.8,0.4,1,0.9c0.4,0.9,0.7,1.9,1,2.8c0.1,0.5,0.3,0.9,0.5,1.3c0.2,0.4,0.6,0.2,0.7-0.3
		c0-0.2,0-0.3,0-0.5c-0.1-2.1-0.5-4.3-1-6.3c-0.1-0.2-0.2-0.5-0.3-0.7c-0.2-0.6-0.7-0.9-1.3-0.9c-1.6,0-1.8-0.2-2.3-2
		c0-0.1-0.1-0.2-0.2-0.3c-0.1,0-0.2,0-0.3,0.1c-0.1,0.2-0.2,0.4-0.4,0.5c-0.4,0.7-0.5,0.7-1.1,0.3c-0.1-0.1-0.3-0.2-0.4-0.3
		c-0.4-0.6-1.2-0.7-1.8-0.3c0,0-0.1,0-0.1,0.1c-0.8,0.7-1.6,1.4-2.2,2.2s-1.2,1.6-1.6,2.4C383.2,180.2,383.6,180.9,384.3,180.8z"/>
	<path class="st5" d="M395.2,210.9c-0.6-1.1-1.7-2-3-2.2c-1.8-0.3-2.8-0.3-3.6,0.2c0.4,0.3,0.7,0.6,1.1,0.8c1.4,1,2.8,1.9,4.2,2.8
		c0.2,0.2,0.5,0.4,0.7,0.6c0.3,0.3,0.5,0.6,0.6,1c0.1,0.6,0,1.2-0.2,1.8c-0.2,0.9-0.2,1.1,0.5,1.4c0.5,0.2,0.9,0.3,1.4,0.3
		c0.4,0,0.6-0.3,0.5-0.7s-0.2-0.9-0.2-1.4c0-0.6,0.1-1.2,0.6-1.4c0.9-0.4,1.9-0.7,2.8-0.9c1.5-0.4,3-0.8,4.5-1.2
		c0.2-0.1,0.4-0.3,0.7-0.5c-0.3-0.2-0.5-0.4-0.7-0.5c-1.6-0.3-3.2-0.6-4.9-0.8c-0.7,0-1.3,0.2-1.8,0.6c-1.2,0.9-1.3,0.8-2.1-0.6
		L395.2,210.9z"/>
</g>
</svg>
