<svg id="Layer_1" data-name="Layer 1" xmlns="http://www.w3.org/2000/svg" viewBox="0 0 800 450"><defs><style>.cls-1{fill:#b3e5fc;}.cls-2{fill:#fff;}.cls-3,.cls-5{fill:#e1f5fe;}.cls-4{fill:#ffe082;}.cls-5{opacity:0.6;}.cls-6{fill:#039be5;}.cls-7{opacity:0.74;}.cls-8{fill:#bf0a30;}.cls-9{fill:#002868;}.cls-10{fill:#570516;}.cls-11{opacity:0.85;}.cls-12{fill:#263238;}</style></defs><title>Artboard 1</title><rect class="cls-1" width="800" height="450"/><path class="cls-2" d="M174.14,126.3v-.21a40.71,40.71,0,0,0-78.26-15.71,30.81,30.81,0,0,0-3.13-.17A29.61,29.61,0,0,0,64.27,148H193.13A21.89,21.89,0,0,0,174.14,126.3Z"/><path class="cls-3" d="M298.89,81.06v-.15A30.09,30.09,0,0,1,356.73,69.3a22.16,22.16,0,0,1,2.32-.12,21.89,21.89,0,0,1,21,27.92H284.86A16.19,16.19,0,0,1,298.89,81.06Z"/><path class="cls-3" d="M504.29,117.88v-.15a30.09,30.09,0,0,1,57.84-11.61,22.18,22.18,0,0,1,2.32-.12,21.89,21.89,0,0,1,21.89,21.89,21.65,21.65,0,0,1-.85,6H490.25A16.19,16.19,0,0,1,504.29,117.88Z"/><circle class="cls-4" cx="584.24" cy="110.79" r="45.94"/><path class="cls-2" d="M695.25,146.85v-.21A40.71,40.71,0,0,0,617,130.94a30.18,30.18,0,0,0-3.13-.17,29.62,29.62,0,0,0-28.47,37.78H714.24A21.89,21.89,0,0,0,695.25,146.85Z"/><ellipse class="cls-5" cx="90.56" cy="184.74" rx="11.43" ry="4.46"/><path class="cls-6" d="M133.71,179.27v-.21h-4.37v0l-6.48,6.48c-2.7-.18-6.44-.29-11.62-.38-.08,0-7.72-1.55-7.8-1.55h-1l2.8-7c6-.1,10-.28,10-.49s-9.49-.58-21.19-.58-21.19.26-21.19.58,3.16.35,8.08.46l-2.81,7.09H73.55a1,1,0,0,0-.91,1v7.51a1,1,0,0,0,.91,1h2.66l.55,2.4a1.62,1.62,0,0,0-.29.89,1.66,1.66,0,1,0,1.71-1.65l-.1-.43a.91.91,0,0,1,.68-1.09l.54-.12h24.15c.08,0,7.73,0,7.81,0,8.29-.15,12.9-.71,15.45-1.53h7v-.2h-6.43c2.11-.82,2.47-1.86,2.47-3a2,2,0,0,0-.41-1.36v-7.73ZM79,183.58h-.09l2.8-7.07c3.47.07,7.72.11,12.31.11,3.79,0,7.34,0,10.42-.08l-3.38,8.53c-2,1.56-5.9,2.62-10.42,2.62C84.78,187.7,79.92,185.92,79,183.58Z"/><path class="cls-6" d="M67.5,182c-.38,0-.68,1.42-.68,3.17a11,11,0,0,0,.21,2.3.9.9,0,0,0,0,1.74,11,11,0,0,0-.21,2.3c0,1.75.3,3.17.68,3.17s.68-1.42.68-3.17a10,10,0,0,0-.27-2.53.9.9,0,0,0,.27-.64.91.91,0,0,0-.27-.64,10.17,10.17,0,0,0,.27-2.53C68.18,183.44,67.87,182,67.5,182Z"/><path class="cls-6" d="M71,192.37a2.64,2.64,0,0,0,.91.47v-9a2.66,2.66,0,0,0-.91.47Z"/><path class="cls-6" d="M70.3,191.54v-6.37a6,6,0,0,0,0,6.37Z"/><g class="cls-7"><polygon class="cls-2" points="199.27 193.8 202.41 196.94 154.98 196.94 154.98 182.46 202.43 182.46 199.29 185.6 196.75 188.13 195.18 189.71 196.74 191.27 199.27 193.8"/><polygon class="cls-8" points="202.41 196.94 154.98 196.94 154.98 189.7 195.18 189.71 202.41 196.94"/><rect class="cls-2" x="133.71" y="177.82" width="27.5" height="14.47"/><rect class="cls-8" x="133.71" y="185.06" width="27.5" height="7.24"/><rect class="cls-9" x="133.71" y="177.82" width="10.21" height="14.47"/><polygon class="cls-2" points="137.58 185.82 136.78 188.29 138.88 186.76 140.99 188.29 140.18 185.82 142.28 184.29 139.68 184.29 138.88 181.82 138.08 184.29 135.48 184.29 137.58 185.82"/><polygon class="cls-10" points="154.98 196.94 158.1 194.62 161.21 192.29 154.98 192.29 154.98 196.94"/></g><g class="cls-11"><polygon class="cls-12" points="797.85 342.33 797.85 332.53 791.33 332.53 791.33 323.71 784.3 323.71 784.3 332.53 779.28 332.53 779.28 319.29 767.24 319.29 767.24 325.99 762.72 325.99 762.72 342.15 759.21 342.15 759.21 312.93 747.16 312.93 747.16 342.15 744.65 342.15 744.65 308.93 731.11 308.93 731.11 265.24 724.96 265.24 724.96 260.23 721.65 260.23 720.82 242.41 719.75 260.23 716.68 260.23 716.68 265.24 714.54 265.24 712.41 265.24 712.41 260.23 709.34 260.23 708.27 242.41 707.44 260.23 704.13 260.23 704.13 265.24 697.98 265.24 697.98 308.93 684.43 308.93 684.43 342.15 681.93 342.15 681.93 312.93 677.32 312.93 677.32 229.35 671.3 229.35 671.3 225.34 664.58 225.34 663.27 204.59 661.97 225.34 655.24 225.34 655.24 229.35 652.85 229.35 652.25 219.71 651.64 229.35 649.22 229.35 649.22 332.53 644.79 332.53 644.79 323.71 644.12 323.71 644.12 276.86 641.11 276.86 641.11 269.08 625.55 269.08 625.55 262.3 616.27 262.3 616.27 269.08 599.96 269.08 599.96 266.07 591.93 266.07 591.93 269.08 584.65 269.08 584.65 276.86 578.63 276.86 578.63 317.69 577.04 317.69 577.04 310.3 563.99 310.3 563.99 299.37 553.45 299.37 553.45 279.3 549.81 279.3 549.81 273.77 543.92 273.77 543.92 279.3 539.4 279.3 539.4 299.37 535.64 299.37 535.64 303.04 531.87 303.04 531.87 309.1 528.86 309.1 528.86 290.84 528.86 287.83 521.08 287.83 521.08 290.84 513.3 290.84 513.3 303.88 502.35 303.88 502.35 300.69 501.09 300.69 501.09 281.12 498.39 281.12 497.05 259.83 495.71 281.12 490.92 281.12 489.68 254.44 488.43 281.12 484.03 281.12 484.03 300.69 482.81 300.69 482.81 296.5 476.17 296.5 476.17 295.36 474.43 295.36 474.43 281.81 465.72 281.81 465.72 270.69 456.64 270.69 456.64 256.45 450.07 256.45 450.07 249.77 418.61 249.77 418.61 256.45 412.04 256.45 412.04 270.69 402.97 270.69 402.97 281.81 394.26 281.81 394.26 285.96 380.82 285.96 380.82 330.6 377.81 330.6 377.81 327.98 375.3 327.98 375.3 312.93 367.83 312.93 367.83 219.62 359.05 203.34 350.27 219.62 350.27 303.88 345.19 303.88 345.19 287.83 340.88 287.83 340.67 285.96 340.67 282.31 340.27 282.31 339.15 272.15 339.15 282.31 336.66 282.31 336.66 287.83 331.64 287.83 331.64 282.31 331.15 282.31 331.15 272.15 330.03 282.31 327.12 282.31 327.12 287.83 323.11 287.83 323.11 327.98 319.09 327.98 319.09 308.93 316.08 308.93 316.08 305.89 296.01 305.89 296.01 327.98 281.45 327.98 281.45 282.31 277.44 282.31 277.44 214.9 272.84 214.9 272.84 210.8 269.79 210.8 269.79 208.06 258.2 208.06 258.2 210.8 255.15 210.8 255.15 214.9 254.93 214.9 250.34 214.9 250.34 282.31 246.83 282.31 246.83 325.47 238.79 325.47 238.79 330.6 229.76 330.6 229.76 299.37 227.26 299.37 227.26 273.77 222.74 273.77 222.74 268.25 209.19 268.25 209.19 273.77 204.67 273.77 204.67 299.37 202.16 299.37 202.16 308.79 188.36 308.79 188.36 321.83 177.07 321.83 177.07 312.93 163.92 312.93 163.92 308.93 135.02 308.93 135.02 261.29 132.89 261.29 132.89 256.27 129.81 256.27 128.75 238.46 127.92 256.27 124.61 256.27 124.61 261.29 118.46 261.29 118.46 304.98 104.91 304.98 104.91 338.2 102.4 338.2 102.4 308.98 90.36 308.98 90.36 338.2 86.84 338.2 86.84 322.05 82.33 322.05 82.33 315.34 70.28 315.34 70.28 328.58 65.26 328.58 65.26 319.76 58.24 319.76 58.24 328.58 55.23 328.58 55.23 308.98 27.88 308.98 27.88 313.74 19.6 313.74 19.6 338.2 0.53 342.33 0 342.33 0 450 800 450 800 342.33 797.85 342.33"/><path class="cls-12" d="M430.37,165.54a27.5,27.5,0,0,1,4.77,2.81c1.32,1,1.34,1.12.05,2.26-.26.24-.55.47-.46.92a4.37,4.37,0,0,0,1,2.42,4.28,4.28,0,0,0,.91.53c.42-1.22.29-2.57,1.31-3.32a2.4,2.4,0,0,1,.48.4c.92,1.33,1.83,2.67,2.74,4a6.2,6.2,0,0,0,.54.81c.11.13.4.22.51.14a1.27,1.27,0,0,0,.34-.62,1,1,0,0,0-.05-.45c-.37-1.75-.74-3.51-1.13-5.25a2.4,2.4,0,0,0-1.08-1.67,2.85,2.85,0,0,1-1.29-2.86,4.51,4.51,0,0,0-.08-.76c-.16,0-.27,0-.34,0a.92.92,0,0,0-.32.24c-.76.82-.76.81-1.54-.05a3.56,3.56,0,0,0-1.15-1,15.55,15.55,0,0,0-6.07-.59c-.21,0-.56.27-.58.46a1.22,1.22,0,0,0,.3.87A4.36,4.36,0,0,0,430.37,165.54Z"/><path class="cls-12" d="M384.31,180.8a1.07,1.07,0,0,0,.69-.34,7.21,7.21,0,0,1,2.05-1.5,1.72,1.72,0,0,1,2.18.14,1.59,1.59,0,0,1,.64,1.92,13.09,13.09,0,0,0-.42,1.4,1.47,1.47,0,0,0,.14,1,1.7,1.7,0,0,0,1.74.78c.64-.12.81-.41.75-1.19,0-.34-.07-.69-.11-1-.16-1.23.11-1.75,1.41-1.41a1.67,1.67,0,0,1,1,.85c.41.9.68,1.9,1,2.84a6.46,6.46,0,0,0,.53,1.33c.24.37.62.19.7-.28a2,2,0,0,0,0-.46,31.68,31.68,0,0,0-1.05-6.32,4.33,4.33,0,0,0-.31-.72,1.4,1.4,0,0,0-1.33-.94c-1.6,0-1.76-.21-2.27-2a1.48,1.48,0,0,0-.17-.26c-.13,0-.25,0-.3.08a4.72,4.72,0,0,0-.35.54c-.39.67-.51.7-1.1.26a3.72,3.72,0,0,1-.39-.34,1.27,1.27,0,0,0-1.87-.19,17.89,17.89,0,0,0-2.25,2.16,15.2,15.2,0,0,0-1.61,2.45C383.25,180.18,383.65,180.87,384.31,180.8Z"/><path class="cls-12" d="M395.19,210.93a4.33,4.33,0,0,0-3-2.2c-1.82-.27-2.82-.29-3.63.21.39.31.71.59,1.06.82,1.4,1,2.81,1.87,4.2,2.82.25.17.45.44.7.62a1.71,1.71,0,0,1,.56,1,3,3,0,0,1-.24,1.77c-.24.87-.16,1.11.55,1.39a5.68,5.68,0,0,0,1.43.29c.43,0,.56-.27.5-.74s-.17-.91-.2-1.36c0-.61.1-1.2.64-1.4.92-.35,1.85-.67,2.79-.93,1.51-.43,3-.8,4.54-1.22.21-.06.39-.28.7-.51-.34-.23-.51-.43-.71-.47-1.63-.3-3.25-.6-4.88-.83a2.61,2.61,0,0,0-1.84.59c-1.21.86-1.29.81-2.08-.57Z"/></g></svg>