<?xml version="1.0" encoding="utf-8"?>
<!-- Generator: Adobe Illustrator 20.1.0, SVG Export Plug-In . SVG Version: 6.00 Build 0)  -->
<svg version="1.1" id="Layer_1" xmlns="http://www.w3.org/2000/svg" xmlns:xlink="http://www.w3.org/1999/xlink" x="0px" y="0px"
	 viewBox="0 0 800 450" style="enable-background:new 0 0 800 450;" xml:space="preserve">
<style type="text/css">
	.st0{fill:url(#SVGID_1_);}
	.st1{fill:#E1F5FE;}
	.st2{fill:#FFE082;}
	.st3{fill:#FFFFFF;}
	.st4{opacity:0.87;}
	.st5{fill:#231F20;}
</style>
<title>Artboard 1</title>
<radialGradient id="SVGID_1_" cx="491.7591" cy="170.3569" r="632.6763" fx="582.8784" fy="114.959" gradientTransform="matrix(-1 0 0 1 800 0)" gradientUnits="userSpaceOnUse">
	<stop  offset="0" style="stop-color:#E1F5FE"/>
	<stop  offset="1" style="stop-color:#80D8FF"/>
</radialGradient>
<rect x="0" y="0" class="st0" width="800" height="450"/>
<path class="st1" d="M309.7,133.9h-95.2c-0.5-2-0.8-4-0.8-6l0,0c0-12.1,9.8-21.9,21.9-21.9c0.8,0,1.5,0,2.3,0.1
	c4.7-11.2,15.6-18.5,27.7-18.5c16.6,0,30.1,13.5,30.1,30.1v0.2C303.7,119,309.7,125.8,309.7,133.9z"/>
<circle class="st2" cx="215.8" cy="110.8" r="45.9"/>
<path class="st3" d="M85.9,168.6h128.8c0.7-2.7,1.1-5.4,1.1-8.2c0-16.3-13.2-29.6-29.6-29.6c-1,0-2.1,0.1-3.1,0.2
	c-6.3-15.1-21.1-25-37.5-25c-22.5,0-40.8,18.2-40.8,40.7v0.2C93.9,148.3,85.8,157.6,85.9,168.6z"/>
<g class="st4">
	<polygon class="st5" points="0,342.3 0,450 800,450 800,342.3 799.5,342.3 780.4,338.2 780.4,313.7 772.1,313.7 772.1,309 
		744.8,309 744.8,328.6 741.8,328.6 741.8,319.8 734.7,319.8 734.7,328.6 729.7,328.6 729.7,315.3 717.7,315.3 717.7,322 713.2,322 
		713.2,338.2 709.6,338.2 709.6,309 697.6,309 697.6,338.2 695.1,338.2 695.1,305 681.5,305 681.5,261.3 675.4,261.3 675.4,256.3 
		672.1,256.3 671.2,238.5 670.2,256.3 667.1,256.3 667.1,261.3 665,261.3 665,308.9 636.1,308.9 636.1,312.9 622.9,312.9 
		622.9,321.8 611.6,321.8 611.6,308.8 597.8,308.8 597.8,299.4 595.3,299.4 595.3,273.8 590.8,273.8 590.8,268.2 577.3,268.2 
		577.3,273.8 572.7,273.8 572.7,299.4 570.2,299.4 570.2,330.6 561.2,330.6 561.2,325.5 553.2,325.5 553.2,282.3 549.7,282.3 
		549.7,214.9 545.1,214.9 544.9,214.9 544.9,210.8 541.8,210.8 541.8,208.1 530.2,208.1 530.2,210.8 527.2,210.8 527.2,214.9 
		522.6,214.9 522.6,282.3 518.5,282.3 518.5,328 504,328 504,305.9 483.9,305.9 483.9,308.9 480.9,308.9 480.9,328 476.9,328 
		476.9,287.8 472.9,287.8 472.9,282.3 470,282.3 468.9,272.1 468.9,282.3 468.4,282.3 468.4,287.8 463.3,287.8 463.3,282.3 
		460.9,282.3 460.9,272.1 459.7,282.3 459.3,282.3 459.3,286 459.1,287.8 454.8,287.8 454.8,303.9 449.7,303.9 449.7,219.6 
		441,203.3 432.2,219.6 432.2,312.9 424.7,312.9 424.7,328 422.2,328 422.2,330.6 419.2,330.6 419.2,286 405.7,286 405.7,281.8 
		397,281.8 397,270.7 388,270.7 388,256.5 381.4,256.5 381.4,249.8 349.9,249.8 349.9,256.5 343.4,256.5 343.4,270.7 334.3,270.7 
		334.3,281.8 325.6,281.8 325.6,295.4 323.8,295.4 323.8,296.5 317.2,296.5 317.2,300.7 316,300.7 316,281.1 311.6,281.1 
		310.3,254.4 309.1,281.1 304.3,281.1 303,259.8 301.6,281.1 298.9,281.1 298.9,300.7 297.6,300.7 297.6,303.9 286.7,303.9 
		286.7,290.8 278.9,290.8 278.9,287.8 271.1,287.8 271.1,290.8 271.1,309.1 268.1,309.1 268.1,303 264.4,303 264.4,299.4 
		260.6,299.4 260.6,279.3 256.1,279.3 256.1,273.8 250.2,273.8 250.2,279.3 246.5,279.3 246.5,299.4 236,299.4 236,310.3 223,310.3 
		223,317.7 221.4,317.7 221.4,276.9 215.3,276.9 215.3,269.1 208.1,269.1 208.1,266.1 200,266.1 200,269.1 183.7,269.1 183.7,262.3 
		174.5,262.3 174.5,269.1 158.9,269.1 158.9,276.9 155.9,276.9 155.9,323.7 155.2,323.7 155.2,332.5 150.8,332.5 150.8,229.4 
		148.4,229.4 147.8,219.7 147.2,229.4 144.8,229.4 144.8,225.3 138,225.3 136.7,204.6 135.4,225.3 128.7,225.3 128.7,229.4 
		122.7,229.4 122.7,312.9 118.1,312.9 118.1,342.1 115.6,342.1 115.6,308.9 102,308.9 102,265.2 95.9,265.2 95.9,260.2 92.6,260.2 
		91.7,242.4 90.7,260.2 87.6,260.2 87.6,265.2 85.5,265.2 83.3,265.2 83.3,260.2 80.2,260.2 79.2,242.4 78.3,260.2 75,260.2 
		75,265.2 68.9,265.2 68.9,308.9 55.3,308.9 55.3,342.1 52.8,342.1 52.8,312.9 40.8,312.9 40.8,342.1 37.3,342.1 37.3,326 32.8,326 
		32.8,319.3 20.7,319.3 20.7,332.5 15.7,332.5 15.7,323.7 8.7,323.7 8.7,332.5 2.2,332.5 2.2,342.3 	"/>
	<path class="st5" d="M370.8,164.7c0.2-0.3,0.3-0.6,0.3-0.9c0-0.2-0.4-0.5-0.6-0.5c-2.1-0.2-4.1,0-6.1,0.6c-0.4,0.2-0.8,0.6-1.1,1
		c-0.7,0.9-0.7,0.9-1.5,0.1c-0.1-0.1-0.2-0.1-0.3-0.2c0,0-0.1,0-0.3,0c-0.1,0.3-0.1,0.5-0.1,0.8c0.2,1.2-0.3,2.3-1.3,2.9
		c-0.6,0.4-1,1-1.1,1.7c-0.4,1.7-0.7,3.4-1.1,5.2c0,0.1,0,0.2,0,0.4c0,0.2,0.1,0.4,0.3,0.6c0.1,0.1,0.4,0,0.5-0.1
		c0.2-0.2,0.3-0.5,0.5-0.8c0.9-1.3,1.8-2.7,2.7-4c0.2-0.2,0.3-0.3,0.5-0.4c1,0.7,0.9,2.1,1.3,3.3c0.3-0.1,0.6-0.3,0.9-0.5
		c0.6-0.7,0.9-1.5,1-2.4c0-0.4-0.2-0.7-0.5-0.9c-1.3-1.2-1.3-1.3,0-2.3c1.5-1.1,3.1-2,4.8-2.8C370,165.4,370.4,165.1,370.8,164.7z"
		/>
	<path class="st5" d="M416.5,179.6c-0.4-0.8-1-1.6-1.6-2.4s-1.4-1.5-2.2-2.2c0-0.1-0.1-0.1-0.1-0.1c-0.6-0.4-1.4-0.3-1.8,0.3
		c-0.1,0.1-0.3,0.2-0.4,0.3c-0.6,0.4-0.7,0.4-1.1-0.3c-0.2-0.1-0.3-0.3-0.4-0.5c-0.1-0.1-0.2-0.1-0.3-0.1c-0.1,0.1-0.2,0.2-0.2,0.3
		c-0.5,1.8-0.7,2-2.3,2c-0.6,0-1.1,0.3-1.3,0.9c-0.1,0.2-0.2,0.5-0.3,0.7c-0.5,2-0.9,4.2-1,6.3c0,0.2,0,0.3,0,0.5
		c0.1,0.5,0.5,0.7,0.7,0.3c0.2-0.4,0.4-0.8,0.5-1.3c0.3-0.9,0.6-1.9,1-2.8c0.2-0.5,0.6-0.8,1-0.9c1.3-0.4,1.6,0.2,1.4,1.4
		c0,0.3-0.1,0.7-0.1,1c0,0.8,0.2,1.1,0.8,1.2c0.6,0.1,1.3-0.2,1.7-0.8c0.1-0.3,0.2-0.7,0.1-1c-0.1-0.5-0.2-0.9-0.4-1.4
		c-0.3-0.7,0-1.5,0.6-1.9c0.6-0.5,1.5-0.6,2.2-0.1c0.7,0.4,1.4,0.9,2,1.5c0.2,0.2,0.4,0.3,0.7,0.3
		C416.4,180.9,416.8,180.2,416.5,179.6z"/>
	<path class="st5" d="M403.7,210.2c-0.8,1.4-0.9,1.5-2.1,0.6c-0.5-0.4-1.1-0.6-1.8-0.6c-1.7,0.2-3.3,0.5-4.9,0.8
		c-0.2,0.1-0.4,0.3-0.7,0.5c0.3,0.2,0.5,0.4,0.7,0.5c1.5,0.4,3,0.8,4.5,1.2c0.9,0.2,1.9,0.5,2.8,0.9c0.5,0.2,0.6,0.8,0.6,1.4
		c0,0.5-0.1,1-0.2,1.4s0.1,0.7,0.5,0.7c0.5,0,0.9-0.1,1.4-0.3c0.7-0.3,0.7-0.5,0.5-1.4c-0.2-0.6-0.3-1.2-0.2-1.8
		c0.1-0.4,0.3-0.7,0.6-1c0.2-0.2,0.5-0.4,0.7-0.6c1.4-0.9,2.8-1.8,4.2-2.8c0.4-0.2,0.7-0.5,1.1-0.8c-0.8-0.5-1.8-0.5-3.6-0.2
		c-1.3,0.2-2.4,1.1-3,2.2L403.7,210.2z"/>
</g>
</svg>
