<?xml version="1.0" encoding="utf-8"?>
<!-- Generator: Adobe Illustrator 21.0.0, SVG Export Plug-In . SVG Version: 6.00 Build 0)  -->
<svg version="1.1" id="Layer_1" xmlns="http://www.w3.org/2000/svg" xmlns:xlink="http://www.w3.org/1999/xlink" x="0px" y="0px"
	 viewBox="0 0 47.6 38.2" style="enable-background:new 0 0 47.6 38.2;" xml:space="preserve">
<style type="text/css">
	.st0{opacity:0.12;enable-background:new    ;}
</style>
<path class="st0" d="M21.4,20.2l-0.1,0.2v0.1L21,20.8l-0.2,0.3L20.4,22l0,0l-0.1-0.1l-0.1-0.1L20,21.7v0.1v0.1V22l-0.1,0.1v0.2
	l-0.1,0.2l-0.2,0.2l-0.1,0.2V23l-0.1,0.3v0.1l-0.1,0.3l-0.2,0.6L19,25.2l-0.1,0.1H19h0.1l0.1-0.1l0.1-0.3l0.2-0.7l0.4-1.2l0.7-1.4
	l1-1.4l0.1-0.1L21.6,20L21.4,20.2z M23.1,17.7L23.1,17.7h-0.2l-0.1,0.1v0.1L22.7,18h-0.1l-0.4,0.8l0,0h0.1v0.1V19v0.1l-0.2,0.2
	l-0.3,0.4L21.7,20l0.1,0.2V20l0.1-0.2l0.3-0.3l0.3-0.5l0.7-0.8v-0.1v-0.2v-0.1L23.1,17.7L23.1,17.7z M19.3,29.9l0.1,0.4l0.1,0.2
	l0.1,0.1v0.1l0.1,0.5l0.1,0.2l0.2,0.3l0.1,0.2l0.1,0.7l0.1,0.2l0.1,0.2l0.1,0.1l0.2,1.7l0.1,0.1h0.1l0.1-0.2v-0.1l-0.1-0.5l-0.1-0.3
	v-0.2v-0.4V33l-0.1-0.3l-0.1-0.5V32l-0.1-0.1v-0.1l-0.8-2.6l-0.3-1.5l-0.1-2.2l0.1-0.2l-0.1,0.1v0.4L19.2,26l0.1,0.2v0.2l-0.1,0.3
	v0.2l0.1,0.3l0.1,0.8v0.3l-0.1,0.3l0.2,0.3V29l0,0v0.1l0,0l0,0h-0.1l0,0v0.1v0.1v0.1l0,0l-0.1,0.1L19.3,29.9z M38.5,7.2L38.5,7.2
	L38.5,7.2L38.5,7.2L38.5,7.2L38.5,7.2L38.5,7.2L38.5,7.2L38.5,7.2h-0.1v0.1L38.5,7.2v0.2v0.1l-0.1,0.1l0,0h-0.2l0,0l-0.1,0.1L37.8,8
	l0,0h-0.1h-0.1l-0.1,0.1v0.1l-0.1,0.1l-0.6,0.4L36.5,9l-0.1,0.2l-0.1,0.2l0,0l0.1-0.2l1.1-0.8l0.3-0.1l1.1-0.9L38.5,7.2L38.5,7.2z
	 M48.4-7.7l-0.1-0.1l-0.2-0.3v-0.1l0.1-0.1v-0.1v-0.4v-0.1h-0.1H48l0,0l0,0l0,0l0,0l0,0l0,0l0,0v-0.2l0,0v-0.1l0,0v-0.1v-0.1v-0.1
	l0,0l0,0l-0.1-0.1l-0.2-0.2l0,0v-0.1V-10v-0.1l0,0v-0.1l0,0l0.1-0.1l0,0l0,0l-0.1-0.1l-0.1-0.1l-0.1-0.1v-0.1v-0.1v-0.1V-11v-0.1
	l0,0l0,0h-0.1l0,0l0,0l0,0l0,0v-0.1l0,0l0,0l0.1-0.1l0,0l0,0l0,0l0,0l0,0l0,0l0,0l-0.2-0.1l0,0l0,0l-0.1-0.1L47-11.7l-0.1-0.1v-0.1
	V-12v-0.1v-0.1v-0.1v-0.1v-0.1l0,0v-0.1v-0.2v-0.1V-13l0,0l0,0l0,0l0,0l0,0v-0.1v-0.1l-0.1-0.3v-0.1l-0.2-0.3L46.5-14v-0.1v-0.1
	l-0.1-0.1l-0.1-0.1l-0.1-0.2l-0.1-0.1l-0.2-0.1l0,0l0,0l0,0l-0.2-0.3l0,0l-0.1-0.1l0,0l-0.1-0.1l0,0l0,0l0,0c0-4.7,0-9.3,0-14h-0.1
	l-0.1-0.1l-0.2-0.2L45-29.5h-0.2h-0.1l-0.3-0.2h-0.1l-0.1,0.1h-0.1l-0.4-0.2h-0.1l-0.1,0.1l-0.1,0.1l-1.1-0.5l-0.2-0.1l-0.2,0.1
	h-0.1l-0.1-0.1l0.1-0.1v-0.1h-0.2l-0.2-0.1l-0.1-0.1l-0.1-0.2L41.1-31c-0.1,0-0.1,0-0.2,0h-0.2l-0.1-0.1v0.1l-0.4-0.1l-0.1-0.1v-0.1
	l0,0h-0.2h-0.2l-0.1-0.1l-0.1-0.1h-0.1h-0.1l0,0h-0.1h-0.1l0,0L39-31.6l-0.1-0.1l-0.1-0.2h-0.1h-0.1L38.4-32l-0.5-0.1l-0.3-0.3
	l-0.1-0.2v-0.1l-0.1-0.1h-0.1v-0.1V-33l0,0v-0.1h-0.1h-0.1h-0.3h-0.1l-0.1-0.1l-0.2-0.2l-0.1-0.1l-0.2-0.1v-0.1v-0.1v-0.1L36-34
	l-0.5-0.2h-0.1l-0.1,0.1v0.1v0.2v0.1l-0.1-0.1v0.1h-0.1H35h-0.1l-0.1-0.1h-0.2v0.1v0.1l0,0l0,0l0,0h-0.1h-0.6h-0.1v-0.1h-0.1h-0.1
	h-0.1l0,0l0,0l0,0l0,0l0,0l0,0l0,0h-0.2l-0.1-0.1l0.1-0.1L33.2-34l-0.1-0.1L33-34.2l-0.1-0.1h-0.1l-0.1,0.1L32.6-34h-0.1h-0.1l0,0
	l-0.2,0.1h-0.1H32l-0.1,0.1l-0.1,0.1h-0.1h-0.1h-0.2l-0.1,0.5v0.3l-0.1,0.1h-0.1l0,0v-0.1H31l0,0v0.1h-0.2h-0.1l-0.5-0.3l-0.1-0.1
	H30l-0.1,0.1h-0.1v0.1h-0.1l-0.1,0.1l-0.1,0.1l-0.2,0.1h-0.1h-0.4h-0.1l-0.2,0.1h-0.1l-0.1,0.1l-0.1,0.3v0.1L28.1-32H28h-0.3h-0.2
	v0.1v0.1v0.2l-0.2,0.1l-0.2-0.2L26.9-32l-0.2-0.2h-0.1h-0.5H26v-0.1v-0.1v-0.1l0,0l-0.2-0.1l-0.3-0.1l-0.1-0.1l0,0l0,0l0,0v-0.1l0,0
	l0.1-0.2v-0.1l-0.1-0.1l-0.2-0.1h-0.1H25l0,0l0,0v0.1L24.9-33l0,0l0,0l0,0l0,0h-0.1h-0.1h-0.1h-0.1h-0.1l0,0l-0.2-0.2h-0.1H24h-0.3
	h-0.1h-0.1l0,0l-0.1-0.1l-0.1-0.1v-0.1v-0.3v-0.1l0,0h-0.1h-0.1H23h-0.1h-0.3l0,0l0,0l-0.1,0.1v0.1v0.2l-0.1,0.2l-0.1,0.2h-0.2
	l-0.3-0.1v0.1l0.1,0.1H22v0.1v0.1l-0.1,0.1v0.1v0.3l-0.1,0.2L21.7-32h-0.2l-0.2-0.1l-0.2-0.2L21-32.5v-0.2v-0.2l0.1-0.2v-0.1v-0.1
	L21-33.4l-0.1-0.1l-0.1-0.1l0,0h-0.1l0,0l0,0v0.1l-0.1,0.2v0.1l-0.2-0.2h-0.1l-0.1,0.1l0,0v0.1l0,0l0,0h-0.1l0,0H20h-0.1h-0.5
	l-0.1-0.1v-0.2v-0.2l-0.1-0.1l-0.1-0.1h-0.2h-0.5L18.3-34l-0.1-0.2v-0.3l-0.1-0.2l-0.3-0.1l-0.3,0.1l-0.3,0.2l-0.7,0.7l-0.3,0.2
	l-0.3,0.1l-0.3-0.1l-0.2-0.1l-0.1-0.1v-0.1V-34v-0.1l0.1-0.2v-0.1l-0.1-0.1v-0.1v-0.1l-0.1-0.1h-0.1l-0.3-0.1L14.4-35l-0.3-0.1v-0.3
	v-0.2v-0.3v-0.2L14-36.2h-0.2l-0.4,0.1h-0.2l-1-0.1L12-36.1L11.9-36l-0.6,0.9l-0.1,0.2v0.1H11h-0.4l-0.1-0.1l-0.3-0.3l-0.1-0.1H10
	l-0.1-0.2l-0.1-0.1l-0.2-0.1H9.5H9.3l-0.5,0.2H8.7l-1-0.2l-0.2-0.1l-0.6-0.4H6.7H6.6l-0.1,0.1H6.3H6.1l-0.3-0.1H5.6H5.2H5l-0.1-0.1
	v-0.1v-0.5V-37v-0.1l-0.1-0.2l-0.2-0.2l-0.1-0.1v-0.2l-0.1-0.1L4.2-38H4.1H4H3.9l-0.1-0.1v-0.1v-0.1v-0.1l-0.1-0.1H3.6l-0.1,0.1v0.5
	l-0.1,0.1l-0.1,0.1H3.1l-0.2-0.1L2.6-38l-0.4-0.1H2.1H2L1.9-38H1.8H1.7H1.2H1.1L1-38.1l0.3,0L0-39.3l-0.1-0.1h-0.2h-0.1h-0.1h-0.3
	h-0.1c0-6,0-11.9,0-17.9H-1c64.9,0,79.3,77,52.2,96.9c-14.2,12-106.8,25-102.8-55.7v0.2l0.2,0.3v0.2v0.2l0.1,0.2l0.2,0.3l-0.1,0.1
	l0.1,0.1l0.1,0.1h0.1h0.1l0,0l0.1,0.1l0.5,0.5h0.1h0.3l0.3,0.1l0.3,0.3l0.2,0.3l0.1,0.3l0.2,0.6l0.1,0.2l0.3,0.4l0.1,0.1v0.1v0.1
	l0,0v0.1l0.3,0.2l0.1,0.1l0.2,0.1l0.3,0.1l0.3,0.2l0.1,0.1h0.2h0.1l0.3,0.2l0.1,0.1l0.1,0.1l0.1,0.1v0.1l0.1,0.1l0.1,0.1l0,0h0.1
	l0.1,0.1l0.6,0.7l0.1,0.2l0.1,0.1l0.6,0.4l0.1,0.1h0.1l0.2,0.2l0.2,0.1l0.1,0.1l0.1,0.1l0.1,0.2l0.1,0.3l0.1,0.1l0.2,0.1l0.3,0.3
	L-42-6l0.3,0.4l0.1,0.1l0.2,0.1l0.4,0.2l0,0v0.1l0,0h0.1l0,0l0,0l0.1-0.1l0,0h0.1l0,0h0.1l0.1,0.1h0.1h0.1h0.1V-5v0.1l0,0l0,0
	l0.1,0.1v-0.1l0,0l0.4,0.4l0.1,0.1h0.1l0.2,0.1l0.2,0.1l0.1,0.1V-4v0.1v0.1v0.1h0.1h0.2l0,0v0.1l0.2,0.3l0.1,0.2V-3v0.2v0.1l0.1,0.1
	l0,0v0.1v0.1v0.1v0.1l0.1,0.1V-2v0.1v0.1l0,0l0.1,0.1l0.1,0.1l0.1,0.1v0.1v0.1v0.1v0.1l0,0l0.1,0.1l0.1,0.2l0.1,0.2l0.1,0.2h0.1
	l0.1,0.1l0.1,0.1l0.1,0.3l0.1,0.1v0.2v0.3v0.2l-0.1,0.3v0.2v0.2l0.1,0.5v0.1v0.1v0.1l0,0l0.1,0.1l0,0v0.1l0.1,0.2l0.1,0.4v0.1
	l0.1,0.2l0.1,0.1l0.1,0.1l0.1,0.4l0.1,0.3v0.1v0.1v0.1v0.1l0.1,0.1l0.4,0.3l0.1,0.1v0.1v0.1v0.1l0,0h0.1l0.6,0.4l0.1,0.1l0.1-0.1
	h0.2l0.2,0.1l0.1,0.2l0.2,0.1h0.1l0,0l0.1,0.3l0.2,0.3l0.2,0.1l0.3,0.1l0.4,0.4l0.3,0.2l0.7,0.2l0.5,0.1h0.5h0.1l0.1,0.1v0.1
	l-0.1,0.2h0.1h0.1h0.1l0.4,0.3l0.2,0.1l0.7,0.2h0.2h0.1l0.1,0.1v0.1v0.1v0.1l0.4,0.4l0.3,0.2h0.1h0.1l0.2,0.2h0.1l0.1-0.1l0.1-0.1
	l0,0h0.1l0.1,0.2l0,0h0.1v0.2l0.1,0.1h0.5l0.4,0.1h0.3l0.2-0.1l0.1-0.2v-0.3l0,0h0.1l0,0V9.9V9.8l0.1-0.1l0.3-0.2l0.1-0.1l0.1-0.1
	l0.2-0.4l0.1-0.1l0.2,0.1V8.8l0.3-0.3h0.2h0.1l0,0l-0.1-0.1l-0.2-0.1l-0.1-0.1V8.1l0.1-0.3V7.6V7.5V7.4l0.1-0.1l0,0l0,0h0.1h0.1l0,0
	l0,0l-0.1-0.1V7.1l0.1-0.1V6.9V6.8V6.7V6.6V6.5V6.4l0.2-0.6l0.1-0.1V5.6V5.5h0.1l0,0l0,0V5.4h0.1V5.3l0.1-0.1l0,0l0.1-0.2l0,0l0,0
	V4.9l0.2-0.4V4.4V4.3V4.2l0.1-0.1h0.1h0.3h0.1l0.3-0.2l0.1-0.1l0,0v0.1l0,0l0,0l0,0l0,0l0,0l0.1-0.1l0,0l0.1-0.1l0,0h0.1l0.8,0.1
	l0,0l0.2-0.3V3.4V3.2V3.1l0.1-0.1h0.1h0.1l0,0l0.1-0.2h0.1h0.1l0.1,0.1l0.1,0.1h0.1v0.2l0.1,0.1h0.3l0.4,0.2l0.1,0.1l0.3,0.1
	l0.7-0.1l0.2,0.1l0.1-0.1h0.1l0.1,0.1l0.1,0.1h0.1h0.1h0.1h0.1h0.1h0.1h0.2h0.3l0.1-0.1h0.1v0.1h0.1l1.2,0.2l0.4-0.1h0.1l0.1-0.1
	V3.6l0,0h0.1l0.1,0.1v0.1l0,0l-0.1,0.1V4h0.2l0.1-0.1l0.1-0.1l0.1-0.1h0.1l0.1,0.1h0.1h0.1h0.1h0.1h0.1v0.1V4l0.1,0.1l0.1,0.2
	l0.1,0.2l0.1,0.2v0.1l0.1,0.1l0.1,0.1h0.2h0.1v0.1l-0.1,0.2v0.1h0.1l0.1-0.1l0.2-0.1h0.2l0.1,0.1v0.2L-11,5.8v0.1l0.1,0.1h0.1h0.1
	l0.1,0.1l0.1,0.2l0.2,0.1l0.5,0.2l0.2,0.1l0.1,0.1V7v0.1v0.1l0.1,0.1l0.1,0.1l0.1,0.1l0.6,0.3L-8.4,8l0.1,0.2l0.1,0.1l0.4,0.2
	l0.2,0.1l0.1,0.1L-7.3,9l-0.1,0.2l0.1,0.1l0.4,0.3l0,0v0.1h0.1h0.1h0.1l0.1,0.1l0.1,0.5l0.1,0.3v0.2L-6.4,11l0.1,0.1v0.1v0.1v0.1
	v0.1l0.1,0.1l0.1,0.1v0.1l0,0l0.1,0.1l0,0V12v0.1v0.1h0.1h0.1l0,0l0,0v0.1l0,0v0.1l0.2,0.8l0.1,0.2l0.3,0.4V14l0.1,0.1l0.2,0.1
	l0.1,0.1v0.1v0.2v0.1l0.1,0.2l0.2,0.1l0.3,0.1l0,0l-0.2,0.1v0.1v0.1l0.1,0.1l0.1,0.1l0,0v0.3l0.1,0.3l0.2,0.3l0.1,0.2v0.1V17
	l0.1,0.2l0.1,0.1l0.1,0.1h0.2h0.1v0.1v0.1v0.1l0.1,0.1H-3l0.7,0.4l0.1,0.1l0.1,0.2v0.1v0.1l0.1,0.1l0.1,0.1h0.1l0,0V19v0.1l0.1,0.1
	l0.1,0.1l0.1,0.1l0.1,0.1h0.1h0.2l0.1,0.1l-0.1,0.1l0.1,0.1l0.1,0.2l0.1,0.1l0.1,0.1l0,0v0.1l-0.1,0.1v0.1h0.1h0.1l0.1,0.1v0.1v0.2
	V21l0,0l0.1,0.1l0.1,0.1l0,0h0.2L0,21.3l0.1,0.1l0.1,0.1h0.1h0.1h0.1v0.1v0.1v0.1h0.1L0.7,22l0,0H1l0,0l0.1,0.1l0,0h0.1L1.4,22h0.1
	h0.1l0.1,0.2l0,0h0.1L2,22.3l0.2,0.1l0.1,0.1v0.3V23v0.1l0,0h0.1h0.1v0.1v0.1l0,0v0.3v0.1l-0.1,0.2v0.2v0.1v0.1v0.1l-0.1,0.1l0,0
	v0.1l0.2,0.1l0,0l0,0v0.1l0,0h0.1l0,0l0.1,0.1L2.8,25l0.1,0.2v0.2v0.2L2.8,26v0.2l0,0l0,0v0.1v0.1v0.1l-0.2,0.3L2.7,27l0,0l0.1,0.1
	h0.1H3h0.1l0.1,0.1v0.1v0.2v0.1l0.1,0.1l0.3,0.2L3.7,28l0.2,0.3L4,28.4l0.1,0.1l0.1,0.1L4.3,29l0.1,0.4l0.3,0.9
	c0,0.2,0.1,0.4,0.1,0.6v0.2L5,31.2h0.2l0.1,0.1l0.1,0.2v0.1v0.1l-0.1,0.1v0.1V32l0.2,0.1h0.1h0.1h0.1l0,0v0.1l0,0l0,0l0.1-0.1h0.2
	h0.1l0.1,0.1l0.1-0.1l0.3,0.2h0.2L7,32.4h0.1h0.1v-0.1h0.1h0.1h0.1h0.1l0,0l0.1,0.1L8,32.6l0.1,0.1v0.1h0.1h0.1h0.1l0.1,0.1L8.4,33
	l0,0h0.1h0.1l0.2,0.2l0.1,0.1H9l0.5-0.2l0.2,0.1l0.2,0.1l0.2,0.1l0.2,0.2l0,0c0-0.1,0.1-0.1,0.1-0.2l0.2,0.1l0.2,0.1l0.2,0.1
	l-0.1,0.2V34H11h0.2v0.1l0.2,0.3l0.1,0.1l0.6,0.3l0.3,0.1h0.3l0.4-0.1h0.2l0.1,0.2h0.1l0.2-0.1l0.2-0.1H14l0.4,0.1l0.5-0.1h0.6h0.2
	v0.1h0.1h0.7h0.1l0.1,0.1l0.1,0.1l0.1,0.1l0.1,0.1l0.1,0.1l0.2,0.1l0.3,0.4l0.1,0.1l0.1,0.1h0.1h0.2l0.1,0.1v0.1l0.1,0.1h0.2l0,0
	l0,0v-0.1l0,0l0,0h0.1l0,0v0.1v0.1h0.1l0.2-0.1v-0.2L18.8,36v-0.2l0,0l0.2-0.1l0.1,0.1l0.2-0.1l0.1-0.1v-0.1l0,0h0.1h0.4h0.5v-0.1
	c0-0.2,0-0.4,0-0.6l-0.1-0.2h-0.1l-0.1,0.1v0.1V35v0.1L20,35.2l-0.1,0.1l-0.2,0.1l0,0l0,0l0,0h-0.1l0,0v-0.1v-0.1v-0.1l0.1-0.2v-0.1
	l0.1,0.1h0.1l0.1-0.1v-0.1h-0.1h-0.1h-0.2h-0.1h-0.1h-0.1l0,0l-0.1-0.1v-0.2v-0.3v-0.2l-0.1-0.2v-0.1v-0.1v-0.1l0.1-0.1v-0.1v-0.1
	h-0.1H19h-0.1h-0.1L18.7,33v-0.2v-0.2l0.1-0.1l0,0v-0.1h-0.1l0,0l0,0l0,0h-0.1h-0.1v-0.1l0.1-0.2V32l0,0h-0.2h-0.1v-0.1v-0.1v-0.1
	h-0.1h-0.1l0,0v-0.1v-0.2v-0.1v-0.1l-0.3-0.1L18,31l0.1-0.1v-0.1l0,0l0.1,0.1V31v-0.3L18,30.1l-0.1-0.6L17.7,29l-0.1-0.4v-0.1
	l-0.1-0.1l-0.1-0.1h-0.1h-0.1h-0.1L17,28.2v-0.1v-0.2v-0.2l0.1-0.1h0.1l0.3,0.3l0.1-0.2l-0.1-0.1l-0.3-0.1l-0.1-0.1L17,27.3v-0.2
	v-0.4v-0.1h0.1h0.4l0.1-0.1v-0.1l-0.1-0.2l0.1-0.1L17.5,26l-0.1-0.1l0,0h0.1h0.1l0.1-0.1l0.1-0.1v-0.1l-0.1-0.1v-0.1h0.1v-0.1v-0.1
	V25v-0.1h0.1l0.1-0.1v-0.1v-0.1l-0.5,0.2l-0.1,0.1L17.3,25h-0.2l-0.4-0.1l-0.2-0.1l-0.1-0.1l-0.1-0.1h-0.2h-0.4h-0.2l-0.1-0.2h0.2
	h0.2H16l0.2-0.1l0.1-0.1v-0.1h-0.1l-0.1,0.1l0,0l0,0v-0.1l0.2-0.1l-0.1-0.2l-0.3-0.3H16l-0.1-0.2L15.6,23v-0.2l0.2,0.2l0.2,0.2
	l0.6,0.9v0.1v0.1v0.1h0.1h0.1l0,0v-0.1v-0.1l0.1-0.2H17v0.1l0.1-0.1h0.1h0.1l-0.1-0.1l0.1-0.1l0.2-0.2l0.1-0.1v0.2v0.2V24h0.1h0.1
	l0,0h0.1l0,0l0,0l-0.1,0.1h-0.1h-0.1h-0.2l0,0l0,0l0,0l0,0l-0.1,0.1L17,24.3l0.1,0.1h0.1l0.2-0.2l0.5-0.2l0.1-0.1v-0.2l0.3-0.9
	l0.1-0.1v-0.1v-0.2l0.1-0.4l0.2-0.4v-0.1v-0.2v-0.1v-0.1l0.1-0.1l0.1-0.1v-0.1l-0.1-0.1l-0.7-0.3L18,20.3l-0.2-0.2l0.1-0.1v-0.1
	l0.1-0.2v-0.1l-0.1,0.1h-0.1h-0.1l-0.1-0.1l-0.2,0.1h-0.2l-0.1-0.1L17,19.4h0.1l0,0h0.1l0,0l0,0l0,0l0,0h0.1h0.1l0,0v-0.1l0,0h0.2
	H18l1.3,0.6V20l0,0l0,0h-0.1h0.2l0.3-0.1h0.2H20l0.1,0.1l0.1,0.1l0.1,0.1h-0.2v0.1h0.2l0.2-0.1l0.6-0.9l0.3-0.5l0,0l0,0l0,0l0,0
	l0.1-0.3l0.1-0.1l0.1-0.1l0,0v-0.1v-0.1l0.1-0.3v-0.1l-0.1-0.1h-0.1l0,0l0,0l0,0l0,0l-0.1,0.1l-0.4,0.2L21,18v0.1v0.1l-0.1,0.1
	l-0.1,0.1h-0.1l0,0v-0.1v-0.1l-0.1-0.1L20.5,18l-0.1-0.1h-0.2l-0.1-0.1l0.1-0.2l0.3-0.3h-0.1v-0.1v-0.1l0.1-0.1h0.1h0.1l0.1,0.1
	l-0.1,0.1l0.2-0.1l0.3-0.1l0.3-0.2l0.1-0.2h0.1v0.1V17v0.1l0,0l0,0l0,0l0,0l0.3,0.1h0.1l0.1-0.2l0.1-0.2v-0.1v-0.1l-0.1-0.1l0.2-0.3
	l0.1-0.1h0.1v0.1l-0.1,0.1v0.2l0.1,0.2l-0.1,0.1l-0.1,0.1l-0.1,0.3l0.1-0.1l0.2-0.1l0.1-0.1l0.3-0.4l0.1-0.1l0.3-0.2l0.1-0.1
	l-0.1-0.3v-0.2l0.1-0.1v-0.1l-0.1-0.2l-0.2-0.3l-0.1-0.2l0.1-0.1l0.1,0.1l0.2,0.1l0.1,0.1l0.1-0.1v-0.1l-0.1-0.1l-0.2-0.2h-0.1v-0.1
	v-0.1l0.1-0.1h0.1l0.1,0.1l0.1,0.2l0,0h0.1l0,0v0.1v0.1v0.1l0,0h0.1H24v0.1v0.3v0.1l0.1,0.1h0.1l0.1,0.1l0.8-0.5h0.1l0.3-0.2h0.1
	l0.5-0.3v-0.2L25.9,14l-0.3-0.1L25.4,14l-0.1,0.1l-0.1,0.1h-0.1L25,14.1h0.1l0.4-0.2l-0.1-0.2v-0.1l-0.1-0.1h-0.1L25,13.4l-0.2-0.2
	h-0.1l-0.1,0.1h-0.1l-0.1-0.1v-0.1v-0.2v-0.1v-0.1v-0.1l-0.2-0.3l-0.1-0.1V12v-0.2h0.1l0,0l0,0l0.1-0.1h0.1h0.1l0.1,0.1l0.1,0.1V12
	v0.1v0.1v0.1v0.1v0.1v0.1l0,0h0.1l0,0h0.1H25h0.1v0.1l0.1,0.2l0.3-0.2l0.1,0.2v0.2h-0.1h-0.1l-0.1,0.1h0.2l0.3-0.1l0.4-0.3l-0.3-0.1
	l-0.1-0.1v-0.1v-0.1v-0.1v-0.1v-0.1l0,0h0.1V12v-0.1v-0.1h-0.1l-0.1,0.1h-0.1l-0.1-0.1l-0.1-0.1v-0.2v-0.1l0,0v0.1l0.1,0.2l0,0h0.1
	l0,0l0.1,0.1v0.1V12l-0.1,0.1v0.1l0.2,0.2v0.1v0.1l0,0h0.1l0.2-0.1l0.2-0.2l0.2-0.1v0.1l0.2-0.1h0.1h0.1h0.2h0.1v0.1L27,12.6v0.1
	v0.1h0.2h0.1h0.1h0.1h0.1v0.1l0,0l0.7,0.7H28l-0.1,0.1v0.1h0.2l0.4-0.1l0.4-0.2h0.2h0.1l0.3-0.2h0.2l0.1,0.1v0.1v0.1l-0.1,0.1h-0.2
	l-1.2,0.5L28,14.4l-0.2,0.2l0.2-0.1l0.5-0.3l0.4-0.1l0.5-0.4l0.8-0.2l0.5-0.2l0.9-0.6h-0.3L31,12.8l-1,0.6l0,0l0,0h-0.1l0,0v-0.1
	l0,0l0,0v-0.1v-0.1V13v-0.1l1-0.4h0.3h0.4h0.3l0.3-0.1l0.3-0.2l0.9-0.6l0.5-0.4l0.1-0.1h0.2l0.1-0.1l0.4-0.4l0.4-0.5l0.2-0.1
	l0.6-0.4L36,9.5V9.4V9.3l-0.1-0.4V8.7L36,8.5l-0.1-0.2l-0.1-0.1l0.1,0.1H36h0.1l0.1,0.2l0.2-0.1l0.2-0.1l0.5-0.6l0,0V7.6l0,0l0,0
	h0.1l0,0l0.2-0.1l0.1-0.1V7.3h0.1l0.1,0.1l0.1-0.1l0.1-0.2V6.9L38,6.7h0.1h0.2l0.1,0.1l0,0l0,0l0,0l0,0l-0.3-0.2H38l-0.1-0.1
	l-0.2-0.4l0,0l0,0l0,0l0,0l0,0l0,0l0,0v0.1h-0.2V6.1V6l-0.1-0.1V5.8h0.1l0.1-0.1l0.1-0.1l0.1-0.1l-0.6-0.2L37,5.1l0.1-0.2l0.1-0.1
	l0.1-0.2V4.5L37,4.4V4.3V4.1L37.1,4V3.9l0,0H37h-0.1h-0.1l-0.1-0.1l-0.1-0.1l0,0h0.5l0.2,0.1L37.5,4l0.2,0.1l0.2-0.2L38,3.6l0.1-0.3
	l0.1-0.1l0.1-0.1L38.6,3l0.2-0.1h0.1H39v0.2h0.1h0.1v0.1v0.1l0.1,0.2l-0.1,0.2l-0.1,0.4L39,4.4l-0.1,0.3l-0.1,0.1h-0.1h-0.1h-0.1
	v0.1L38.6,5h0.1h0.1l0.4-0.1l1.1-0.3h0.1l0.1,0.1l0.1,0.1l0.1,0.1l0.1-0.1l0.1-0.1v0.1L40.8,5l-0.1,0.1h-0.1h-0.4h-0.1L40,5.2
	l-0.2,0.2h-0.1h-0.1h-0.1h-0.2l-0.2,0.1l-0.6,0.6l-0.1,0.1v0.1h0.2l0.2-0.1l0.4-0.5l0.3-0.2l2.4-1.1l0.9-0.3l0.6-0.4l0.2-0.1
	l0.3-0.1h0.2H45l0.2,0.1h0.1l0.1-0.2l-0.1-0.3l-0.4-0.5l-0.2-0.3L44.8,2l0.6-0.9l0.1-0.2V0.7h0.1h0.2h0.1l0,0l0.2-0.3l0.4-0.5
	l-0.1-0.1v-0.1l0.1-0.2v-0.2v-0.1v-0.1v-0.2v-0.1l-0.1-0.1v-0.1v-0.1l0.1-0.2v-0.1V-2l-0.1-0.1l-0.1-0.1l-0.1-0.1v-0.4v-0.2l0.1-0.2
	l0.2-0.2l0.1-0.1v-0.2v-0.1L46.5-4l0,0v-0.2l0,0h-0.1l0,0v-0.2l0.1-0.2l0.1-0.1h0.1v-0.1l0.1-0.4l0.1-0.1l0.3-0.2l0.1-0.1L47.4-6
	l0.3-0.5v-0.1v-0.1v-0.1v-0.1v-0.2v-0.1v-0.1l0.1-0.1l0.1-0.1v-0.1l0,0l-0.1-0.1l-0.1-0.1L47.6-8l-0.1-0.2l0.1-0.1h0.1l0.2-0.1H48
	L48.4-7.7L48.4-7.7z M26.5,15.4L26.5,15.4L26.5,15.4h-0.2l0,0v0.2v0.1l-0.1,0.2h-0.1h-0.3h-0.2L25.5,16l-0.2,0.2l-0.4,0.2h-0.1
	l-0.1,0.1l-0.3,0.2l-0.1,0.1l-0.1,0.1l-0.3,0.2h-0.1h-0.1l-0.2,0.1h-0.2l-0.1,0.1v0.1v0.2l0.1,0.1v0.1l-0.1,0.1l0.1,0l-0.1,0.2v0.1
	h0.1l0.1-0.1l0.1-0.1l0.2-0.2l0.4-0.3l0.2-0.2l0.7-0.4l0.4-0.4l0.2-0.2l0.2-0.1l0.6-0.3l0,0l0.1-0.1v-0.1v-0.1V15.4L26.5,15.4z
	 M27.2,14.9l-0.4,0.4v0.1h0.1l0.1-0.1l0.2-0.2l0.2-0.1l0.1-0.1l0.2-0.1h0.1l0,0l0,0l0,0h0.1v-0.1l-0.3,0.1L27.2,14.9z"/>
</svg>
