<svg id="Layer_1" data-name="Layer 1" xmlns="http://www.w3.org/2000/svg" viewBox="0 0 45.99 38.17"><defs><style>.cls-1{opacity:0.12;isolation:isolate;}</style></defs><title>Artboard 1</title><path class="cls-1" d="M21.42,20.2l-.1.2v.1l-.3.3-.2.3-.4.9h0l-.1-.1-.1-.1-.2-.1V22l-.1.1v.2l-.1.2-.2.2-.1.2V23l-.1.3v.1l-.1.3-.2.6-.1.9-.1.1h.2l.1-.1.1-.3.2-.7.4-1.2.7-1.4,1-1.4.1-.1-.1-.1Zm1.7-2.5h-.2l-.1.1v.1l-.1.1h-.1l-.4.8h.1v.3l-.2.2-.3.4-.1.3.1.2V20l.1-.2.3-.3.3-.5.7-.8v-.4l-.1-.1Zm-3.8,12.2.1.4.1.2.1.1v.1l.1.5.1.2.2.3.1.2.1.7.1.2.1.2.1.1.2,1.7.1.1h.1l.1-.2v-.1l-.1-.5-.1-.3V33l-.1-.3-.1-.5V32l-.1-.1v-.1l-.8-2.6-.3-1.5-.1-2.2.1-.2-.1.1v.4l-.1.2.1.2v.2l-.1.3v.2l.1.3.1.8v.3l-.1.3.2.3V29h0v.1h-.1v.3h0l-.1.1ZM38.52,7.2h-.1v.1l.1-.1v.3l-.1.1h-.2l-.1.1-.3.3h-.2l-.1.1v.1l-.1.1-.6.4-.3.3-.1.2-.1.2h0l.1-.2,1.1-.8.3-.1,1.1-.9-.4-.2Zm9.9-14.9-.1-.1-.2-.3v-.1l.1-.1v-.6H48v-.2h0v-.1h0v-.3h0l-.1-.1-.2-.2h0v-.3h0v-.1h0l.1-.1h0l-.1-.1-.1-.1-.1-.1v-.5h-.1v-.1h0l.1-.1h0l-.2-.1h0l-.1-.1-.2-.2-.1-.1v-.7h0V-13h0v-.2l-.1-.3v-.1l-.2-.3-.1-.1v-.2l-.1-.1-.1-.1-.1-.2-.1-.1-.2-.1h0l-.2-.3h0l-.1-.1h0l-.1-.1h0v-14h-.1l-.1-.1-.2-.2-.1.1h-.3l-.3-.2h-.1l-.1.1h-.1l-.4-.2h-.1l-.1.1-.1.1-1.1-.5-.2-.1-.2.1h-.1l-.1-.1.1-.1v-.1h-.2l-.2-.1-.1-.1-.1-.2-.1-.2h-.4l-.1-.1v.1l-.4-.1-.1-.1v-.1h-.4l-.1-.1-.1-.1h-.4l-.1-.1-.1-.1-.1-.2h-.2l-.2-.1-.5-.1-.3-.3-.1-.2v-.1l-.1-.1h-.1V-33h0v-.1h-.6l-.1-.1-.2-.2-.1-.1-.2-.1v-.3L36-34l-.5-.2h-.1l-.1.1v.4l-.1-.1v.1h-.3l-.1-.1h-.2v.2h-.8v-.1h-.5l-.1-.1.1-.1-.1-.1-.1-.1-.1-.1-.1-.1h-.1l-.1.1-.1.2h-.2l-.2.1H32l-.1.1-.1.1h-.4l-.1.5v.3l-.1.1h-.1v-.1H31v.1h-.3l-.5-.3-.1-.1H30l-.1.1h-.1v.1h-.1l-.1.1-.1.1-.2.1h-.6l-.2.1h-.1l-.1.1-.1.3v.1l-.1.1h-.6v.4l-.2.1-.2-.2-.2-.3-.2-.2H26v-.3h0l-.2-.1-.3-.1-.1-.1h0v-.1h0l.1-.2v-.1l-.1-.1-.2-.1H25v.1l-.1.3h-.5l-.2-.2h-.7l-.1-.1-.1-.1v-.5h-.7l-.1.1v.3l-.1.2-.1.2h-.2l-.3-.1v.1l.1.1H22v.2l-.1.1v.4l-.1.2-.1.1h-.2l-.2-.1-.2-.2-.1-.2v-.4l.1-.2v-.2l-.1-.1-.1-.1-.1-.1h-.1v.1l-.1.2v.1l-.2-.2h-.1l-.1.1h0v.1h-.8l-.1-.1v-.4l-.1-.1-.1-.1h-.7l-.1-.1-.1-.2v-.3l-.1-.2-.3-.1-.3.1-.3.2-.7.7-.3.2-.3.1-.3-.1-.2-.1-.1-.1v-.3l.1-.2v-.1l-.1-.1v-.2l-.1-.1h-.1l-.3-.1-.4-.1-.3-.1v-1l-.1-.1h-.2l-.4.1h-.2l-1-.1-.2.1-.1.1-.6.9-.1.2v.1h-.6l-.1-.1-.3-.3-.1-.1H10l-.1-.2-.1-.1-.2-.1h-.3l-.5.2h-.1l-1-.2-.2-.1-.6-.4h-.3l-.1.1h-.4l-.3-.1H5l-.1-.1v-.8l-.1-.2-.2-.2-.1-.1v-.2l-.1-.1-.2-.1h-.3l-.1-.1v-.3l-.1-.1h-.1l-.1.1v.5l-.1.1-.1.1h-.2l-.2-.1-.3-.2-.4-.1H2l-.1.1h-.8L1-38.1h.3L0-39.3l-.1-.1h-.8V-57.3H-1c64.9,0,79.34,77,52.24,96.93-14.2,12-106.84,25-102.84-55.73v.2l.2.3v.4l.1.2.2.3-.1.1.1.1.1.1h.2l.1.1.5.5h.4l.3.1.3.3.2.3.1.3.2.6.1.2.3.4.1.1v.2h0v.1l.3.2.1.1.2.1.3.1.3.2.1.1h.3l.3.2.1.1.1.1.1.1v.1l.1.1.1.1h.1l.1.1.6.7.1.2.1.1.6.4.1.1h.1l.2.2.2.1.1.1.1.1.1.2.1.3.1.1.2.1.3.3.6.5.3.4.1.1.2.1.4.2h0v.1h.1l.1-.1h.2l.1.1h.3v.2h0l.1.1v-.1h0l.4.4.1.1h.1l.2.1.2.1.1.1v.4h.3v.1l.2.3.1.2v.4l.1.1h0v.4l.1.1v.3h0l.1.1.1.1.1.1v.4h0l.1.1.1.2.1.2.1.2h.1l.1.1.1.1.1.3.1.1V.9l-.1.3v.4l.1.5v.3h0l.1.1h0v.1l.1.2.1.4v.1l.1.2.1.1.1.1.1.4.1.3v.4l.1.1.4.3.1.1v.3h.1l.6.4.1.1.1-.1h.2l.2.1.1.2.2.1h.1l.1.3.2.3.2.1.3.1.4.4.3.2.7.2.5.1h.6l.1.1v.1l-.1.2h.3l.4.3.2.1.7.2h.3l.1.1v.3l.4.4.3.2h.2l.2.2h.1l.1-.1.1-.1h.1l.1.2h.1v.2l.1.1h.5l.4.1h.3l.2-.1.1-.2v-.3h.1V9.8l.1-.1.3-.2.1-.1.1-.1.2-.4.1-.1.2.1V8.8l.3-.3h.3l-.1-.1-.2-.1-.1-.1V8.1l.1-.3V7.4l.1-.1h.2l-.1-.1V7.1l.1-.1V6.4l.2-.6.1-.1V5.5h.1V5.4h.1V5.3l.1-.1h0l.1-.2h0V4.9l.2-.4V4.2l.1-.1h.5l.3-.2.1-.1h0v.1h0l.1-.1h0l.1-.1h.1l.8.1h0l.2-.3V3.1l.1-.1h.2l.1-.2h.2l.1.1.1.1h.1v.2l.1.1h.3l.4.2.1.1.3.1.7-.1.2.1.1-.1h.1l.1.1.1.1h1.1l.1-.1h.1v.1h.1l1.2.2.4-.1h.1l.1-.1V3.6h.1l.1.1v.1h0l-.1.1V4h.2l.1-.1.1-.1.1-.1h.1l.1.1h.5V4l.1.1.1.2.1.2.1.2v.1l.1.1.1.1h.3v.1l-.1.2v.1h.1l.1-.1.2-.1h.2l.1.1v.2l-.1.3v.1l.1.1h.2l.1.1.1.2.2.1.5.2.2.1.1.1v.4l.1.1.1.1.1.1.6.3.2.2.1.2.1.1.4.2.2.1.1.1.2.3-.1.2.1.1.4.3h0v.1h.3l.1.1.1.5.1.3v.2l-.1.2.1.1v.4l.1.1.1.1v.1h0l.1.1h0v.3h.2v.1h0v.1l.2.8.1.2.3.4V14l.1.1.2.1.1.1v.4l.1.2.2.1.3.1h0l-.2.1v.2l.1.1.1.1h0v.3l.1.3.2.3.1.2V17l.1.2.1.1.1.1h.3v.3l.1.1H-3l.7.4.1.1.1.2v.2l.1.1.1.1h.1v.2l.1.1.1.1.1.1.1.1h.3l.1.1-.1.1.1.1.1.2.1.1.1.1h0v.1l-.1.1v.1h.2l.1.1V21h0l.1.1.1.1h.2l.1.1.1.1.1.1h.3v.3h.1l.1.2H1l.1.1h.1l.2-.1h.2l.1.2h.1l.2.1.2.1.1.1v.6h.2v.2h0v.4l-.1.2v.5l-.1.1h0v.1l.2.1h0v.1h.1l.1.1.1.1.1.2v.4l-.1.4v.2h0v.3l-.2.3.1.2h0l.1.1h.3l.1.1v.4l.1.1.3.2.1.1.2.3.1.1.1.1.1.1.1.4.1.4.3.9c0,.2.1.4.1.6v.2l.2.1h.2l.1.1.1.2v.2l-.1.1V32l.2.1h.3v.1h0l.1-.1h.3l.1.1.1-.1.3.2h.2l.1.1h.2v-.1h.4l.1.1.3.2.1.1v.1h.3l.1.1-.1.1h.2l.2.2.1.1H9l.5-.2.2.1.2.1.2.1.2.2h0c0-.1.1-.1.1-.2l.2.1.2.1.2.1-.1.2V34h.3v.1l.2.3.1.1.6.3.3.1h.3l.4-.1h.2l.1.2h.1l.2-.1.2-.1H14l.4.1.5-.1h.8v.1h.9l.1.1.1.1.1.1.1.1.1.1.2.1.3.4.1.1.1.1h.3l.1.1v.1l.1.1h.2v-.1h.1v.2h.1l.2-.1v-.2l-.1-.2v-.2h0l.2-.1.1.1.2-.1.1-.1v-.1h1v-.7l-.1-.2h-.1l-.1.1v.4l-.1.1-.1.1-.2.1h-.1v-.3l.1-.2v-.1l.1.1h.1l.1-.1v-.1h-.7l-.1-.1v-.7l-.1-.2v-.3l.1-.1v-.2h-.4l-.1-.1v-.4l.1-.1h0v-.1h-.3v-.1l.1-.2V32h-.3v-.3h-.2v-.5l-.3-.1L18,31l.1-.1v-.1h0l.1.1v-.2l-.2-.6-.1-.6-.2-.5-.1-.4v-.1l-.1-.1-.1-.1h-.3l-.1-.1v-.5l.1-.1h.1l.3.3.1-.2-.1-.1-.3-.1-.1-.1-.1-.1v-.7h.5l.1-.1v-.1l-.1-.2.1-.1-.1-.1-.1-.1h.2l.1-.1.1-.1v-.1l-.1-.1v-.1h.1v-.5h.1l.1-.1v-.2l-.5.2-.1.1-.1.1h-.2l-.4-.1-.2-.1-.1-.1-.1-.1h-.8l-.1-.2H16l.2-.1.1-.1v-.1h-.1l-.1.1h0v-.1l.2-.1-.1-.2-.3-.3H16l-.1-.2-.3-.3v-.2l.2.2.2.2.6.9v.3h.2v-.2l.1-.2H17v.1l.1-.1h.2l-.1-.1.1-.1.2-.2.1-.1V24h.3l-.1.1h-.4l-.1.1-.3.1.1.1h.1l.2-.2.5-.2.1-.1v-.2l.3-.9.1-.1v-.3l.1-.4.2-.4v-.5l.1-.1.1-.1v-.1l-.1-.1-.7-.3-.1-.1-.2-.2.1-.1v-.1l.1-.2v-.1l-.1.1h-.2l-.1-.1-.2.1h-.2l-.1-.1-.1-.2h.4v-.1H18l1.3.6V20h.1l.3-.1H20l.1.1.1.1.1.1h-.2v.1h.2l.2-.1.6-.9.3-.5h0l.1-.3.1-.1.1-.1h0v-.2l.1-.3v-.1l-.1-.1h-.1l-.1.1-.4.2L21,18v.2l-.1.1-.1.1h-.1v-.2l-.1-.1-.1-.1-.1-.1h-.2l-.1-.1.1-.2.3-.3h-.1v-.2l.1-.1h.2l.1.1-.1.1.2-.1.3-.1.3-.2.1-.2h.1v.5h0l.3.1h.1l.1-.2.1-.2v-.2l-.1-.1.2-.3.1-.1h.1v.1l-.1.1v.2l.1.2-.1.1-.1.1-.1.3.1-.1.2-.1.1-.1.3-.4.1-.1.3-.2.1-.1-.1-.3v-.2l.1-.1v-.1l-.1-.2-.2-.3-.1-.2.1-.1.1.1.2.1.1.1.1-.1v-.1l-.1-.1-.2-.2h-.1v-.2l.1-.1h.1l.1.1.1.2h.1v.3H24v.5l.1.1h.1l.1.1.8-.5h.1l.3-.2h.1l.5-.3v-.2l-.2-.2-.3-.1-.2.1-.1.1-.1.1h-.1l-.1-.1h.1l.4-.2-.1-.2v-.1l-.1-.1h-.1l-.2-.1-.2-.2h-.1l-.1.1h-.1l-.1-.1v-.6l-.2-.3-.1-.1v-.4h.1l.1-.1h.2l.1.1.1.1v.7h.4v.1l.1.2.3-.2.1.2v.2h-.2l-.1.1h.2l.3-.1.4-.3-.3-.1-.1-.1v-.5h.1v-.3h-.1l-.1.1h-.1l-.1-.1-.1-.1v-.3h0v.1l.1.2h.1l.1.1V12l-.1.1v.1l.2.2v.2h.1l.2-.1.2-.2.2-.1v.1l.2-.1h.5v.1l-.2.3v.2h.6v.1h0l.7.7H28l-.1.1v.1h.2l.4-.1.4-.2h.3l.3-.2h.2l.1.1v.2l-.1.1h-.2l-1.2.5-.3.2-.2.2.2-.1.5-.3.4-.1.5-.4.8-.2.5-.2.9-.6h-.3l-.3.1-1,.6h-.1v-.1h0v-.4l1-.4h1l.3-.1.3-.2.9-.6.5-.4.1-.1h.2l.1-.1.4-.4.4-.5.2-.1.6-.4.1-.1V9.3l-.1-.4V8.7l.1-.2-.1-.2-.1-.1.1.1h.2l.1.2.2-.1.2-.1.5-.6h0V7.6h.1l.2-.1.1-.1V7.3h.1l.1.1.1-.1.1-.2V6.9l.1-.2h.3l.1.1h0l-.3-.2H38l-.1-.1-.2-.4h0v.1h-.2V6l-.1-.1V5.8h.1l.1-.1.1-.1.1-.1-.6-.2L37,5.1l.1-.2.1-.1.1-.2V4.5L37,4.4V4.1l.1-.1V3.9h-.3l-.1-.1-.1-.1h.5l.2.1.2.2.2.1.2-.2.1-.3.1-.3.1-.1.1-.1.3-.1.2-.1H39v.2h.2v.2l.1.2-.1.2-.1.4-.1.3-.1.3-.1.1h-.3v.1l.1.1h.2l.4-.1,1.1-.3h.1l.1.1.1.1.1.1.1-.1.1-.1v.1l-.1.2-.1.1h-.6l-.1.1-.2.2h-.5l-.2.1-.6.6-.1.1v.1h.2l.2-.1.4-.5.3-.2,2.4-1.1.9-.3.6-.4.2-.1.3-.1H45l.2.1h.1l.1-.2-.1-.3-.4-.5-.2-.3.1-.3.6-.9.1-.2V.7h.4l.2-.3.4-.5-.1-.1V-.3l.1-.2v-.7l-.1-.1v-.2l.1-.2V-2l-.1-.1-.1-.1-.1-.1v-.6l.1-.2.2-.2.1-.1v-.3l-.1-.3h0v-.2h-.1v-.2l.1-.2.1-.1h.1v-.1l.1-.4.1-.1.3-.2.1-.1.1-.4.3-.5v-.8l.1-.1.1-.1v-.1h0l-.1-.1-.1-.1-.1-.2-.1-.2.1-.1h.1l.2-.1H48l.4.7ZM26.52,15.4h-.2v.3l-.1.2h-.6l-.1.1-.2.2-.4.2h-.1l-.1.1-.3.2-.1.1-.1.1-.3.2h-.2l-.2.1h-.2l-.1.1v.3l.1.1v.1l-.1.1h.1l-.1.2v.1h.1l.1-.1.1-.1.2-.2.4-.3.2-.2.7-.4.4-.4.2-.2.2-.1.6-.3h0l.1-.1v-.4Zm.7-.5-.4.4v.1h.1l.1-.1.2-.2.2-.1.1-.1.2-.1h.2v-.1l-.3.1Z"/></svg>